<svg version="1.1" id="Layer_1" xmlns="http://www.w3.org/2000/svg" xmlns:xlink="http://www.w3.org/1999/xlink" x="0px" y="0px"
	 width="100%" viewBox="0 0 1024 1024" enable-background="new 0 0 1024 1024" xml:space="preserve">
<path fill="#000000" opacity="1.000000" stroke="none" 
	d="
M471.547363,322.733154 
	C476.504089,314.751831 485.058472,312.286224 492.189087,307.994843 
	C491.798828,304.670166 489.866852,302.501984 488.499512,300.082306 
	C485.051727,293.981079 481.571777,287.887726 480.424225,280.838379 
	C479.417633,274.655060 481.942047,269.420380 486.720734,267.483887 
	C491.201447,265.668121 496.941650,267.500366 499.730865,273.118408 
	C505.889343,285.522858 515.704529,294.290039 526.564148,302.192474 
	C539.199585,311.387115 545.316528,324.112854 546.030884,339.362396 
	C546.489685,349.156311 549.984619,356.871765 556.375427,364.462982 
	C569.246216,379.751190 580.291199,396.487518 591.329529,413.171844 
	C599.970032,426.231873 608.765259,439.189819 617.537170,452.162445 
	C619.110474,454.489197 620.904785,456.666504 622.604919,458.923248 
	C624.726868,458.055206 624.721375,456.150757 625.263306,454.714478 
	C626.984436,450.152863 629.077087,445.758942 632.233276,442.076111 
	C638.408813,434.870178 642.280334,426.428223 646.087463,417.888885 
	C651.851562,404.960175 657.126709,391.755890 663.783997,379.296143 
	C674.279663,359.652679 688.359680,342.887939 707.493164,330.886017 
	C709.455444,329.655121 711.561279,328.333557 713.770142,327.879486 
	C718.930237,326.818848 720.184387,323.924042 719.750244,318.954559 
	C718.301819,302.374268 715.491028,285.929199 714.842468,269.276398 
	C714.748779,266.868988 713.217224,266.279816 711.369446,265.747375 
	C703.712097,263.540894 697.534729,259.843781 696.553223,250.934509 
	C696.384583,249.403839 695.001343,248.895355 693.940735,248.113174 
	C687.009583,243.001648 685.659180,236.395004 690.197266,228.936035 
	C694.085815,222.544495 699.345764,217.497330 705.977661,213.981735 
	C708.505737,212.641571 709.782532,210.980423 708.859680,207.965912 
	C703.650940,190.950897 716.102478,176.626724 728.275269,171.180557 
	C739.735535,166.053192 751.344177,167.019272 762.997620,170.037323 
	C777.754456,173.859100 790.673401,180.602081 799.395691,193.748001 
	C799.740601,194.267929 800.323364,194.630096 800.773804,195.045837 
	C803.202271,194.479263 804.451965,192.576462 806.062134,191.203217 
	C816.935547,181.929565 834.328552,180.004547 846.926147,186.637711 
	C852.563110,189.605804 856.604797,194.039902 857.760803,200.235519 
	C858.518005,204.293518 860.528931,204.729034 863.890320,204.723083 
	C876.639465,204.700485 886.759705,210.432480 894.489197,220.130402 
	C905.127380,233.477768 901.503113,246.821518 885.841919,253.547028 
	C884.791626,253.998077 883.703979,254.362000 882.012268,255.001266 
	C887.053162,255.837280 891.489319,256.604675 895.936035,257.304779 
	C912.532288,259.917816 915.230347,268.534668 914.715149,282.713318 
	C914.401489,291.345978 912.880615,299.929047 912.381470,308.562134 
	C911.774475,319.061890 915.193604,322.634521 925.711548,323.721100 
	C934.486023,324.627563 943.236145,325.709991 951.850830,327.715271 
	C966.415466,331.105469 976.345032,339.878571 982.243103,353.489746 
	C988.024597,366.831696 989.421387,381.103760 991.307312,395.284790 
	C994.643555,420.371552 996.896606,445.574066 997.863281,470.840790 
	C998.780212,494.806702 998.787231,518.801758 997.588135,542.796021 
	C996.656738,561.431641 995.276672,580.017151 993.209961,598.547302 
	C991.459717,614.240601 990.172363,630.024048 985.311768,645.216187 
	C977.486023,669.675598 960.611694,682.614685 935.302490,685.403320 
	C923.085083,686.749512 910.794617,687.634583 898.863403,691.139099 
	C873.458130,698.601379 858.315186,717.865112 856.122314,744.237244 
	C854.312317,766.005371 856.729309,787.432129 858.955078,808.958862 
	C860.666565,825.511414 861.776917,842.125244 863.306885,858.697754 
	C865.126648,878.409912 867.093750,898.108459 869.030029,917.809692 
	C869.664490,924.264526 870.672363,930.695740 870.995605,937.163391 
	C871.204163,941.336975 873.263977,942.011108 876.760620,941.973267 
	C887.759277,941.854126 898.765503,942.144897 909.758484,941.867676 
	C922.036926,941.558105 930.570618,946.471619 934.910645,958.232422 
	C935.857300,960.797729 936.716858,963.173828 933.656128,964.617310 
	C930.774597,965.976318 929.096069,963.886108 928.323120,961.630005 
	C924.765137,951.244446 917.019348,949.127625 907.015137,949.261719 
	C878.853638,949.639404 850.683472,949.471069 822.517517,949.338501 
	C814.732544,949.301880 808.383484,951.116882 805.076843,959.000671 
	C804.133789,961.249207 802.340942,963.202393 799.595337,961.678223 
	C797.001648,960.238464 797.585999,957.880249 798.578186,955.537231 
	C802.571045,946.108582 809.910767,941.977661 819.866272,941.952881 
	C832.366150,941.921814 844.866150,941.937195 857.366089,941.913879 
	C863.890564,941.901733 863.792908,941.760498 863.183899,935.527344 
	C861.258423,915.821167 859.062012,896.146484 857.512573,876.395996 
	C855.430786,849.859131 852.569092,823.382568 849.962646,796.888000 
	C847.907043,775.994324 846.184021,755.176514 850.254150,734.248413 
	C855.817627,705.641907 874.040222,689.899658 901.067383,682.670471 
	C911.734680,679.817200 922.784058,679.478516 933.651001,677.939270 
	C961.947388,673.931152 975.129333,661.231384 980.677002,632.841370 
	C984.416992,613.702148 985.989929,594.322754 987.899658,574.953735 
	C991.143677,542.052246 991.367371,509.083527 990.537842,476.116394 
	C989.880615,449.995361 987.492920,423.957062 984.049316,398.031677 
	C982.821960,388.791687 981.527161,379.571442 979.682434,370.432220 
	C978.386963,364.014343 976.139465,357.935822 973.114502,352.152832 
	C966.637268,339.769958 955.100952,335.488190 942.385681,333.373505 
	C935.006348,332.146240 927.495422,331.683197 920.139832,330.347198 
	C910.308777,328.561646 905.244141,322.228302 904.769043,312.248718 
	C904.377197,304.015869 906.727722,296.072479 907.170410,287.932495 
	C907.197266,287.438385 907.384399,286.955139 907.449341,286.460571 
	C909.458252,271.162109 902.601562,263.394989 887.216858,263.449127 
	C885.092529,263.456573 884.139526,264.331665 884.174866,266.414978 
	C884.205994,268.247528 884.284241,270.085083 884.192322,271.912964 
	C883.786133,279.989258 881.480286,287.205505 873.590759,290.936340 
	C864.454651,295.256744 854.958740,296.836823 846.014099,290.684937 
	C841.826660,287.804932 838.420654,283.788818 834.216003,279.873718 
	C823.956970,289.033203 810.292236,290.469055 796.781860,292.364502 
	C793.363281,292.844116 791.650940,294.263000 792.876343,298.064301 
	C794.385681,302.746460 792.982666,309.319061 796.811157,311.957062 
	C800.280823,314.347900 806.121826,313.274078 810.912354,313.775024 
	C838.876099,316.699371 863.575134,327.545593 885.648926,344.692657 
	C889.857239,347.961792 894.141052,351.189758 897.984009,354.861694 
	C906.187683,362.700562 915.423096,368.256836 926.326355,371.952271 
	C944.963501,378.268951 947.910828,396.060974 933.096680,409.206085 
	C931.657349,410.483276 931.144775,411.773987 931.257080,413.528290 
	C932.652588,435.327698 928.516846,455.951355 918.101868,475.229828 
	C916.442932,478.300446 917.641479,480.898987 919.769470,482.902893 
	C927.389404,490.078308 927.901489,498.473541 924.387939,507.633026 
	C923.664978,509.517792 923.676819,511.010803 924.987610,512.690002 
	C947.695251,541.779175 942.347900,584.705933 921.792725,613.026978 
	C906.312134,634.356140 885.678467,649.294128 862.392578,660.766541 
	C841.026550,671.293152 819.387207,681.295837 796.576843,688.403076 
	C781.760986,693.019409 766.834778,697.236816 751.006592,694.641602 
	C746.229065,693.858276 747.022400,697.991089 746.557373,700.257568 
	C742.528870,719.893677 736.389282,738.872986 729.366455,757.605103 
	C719.427979,784.114014 708.141479,810.105164 698.997375,836.919128 
	C690.710571,861.219360 684.047668,885.953369 679.441162,911.207214 
	C678.497803,916.378845 676.089722,918.221069 671.047485,918.123535 
	C662.867432,917.965210 662.878052,918.146118 661.351868,926.340393 
	C660.772705,929.449707 659.920898,932.520569 659.539612,935.651184 
	C659.115234,939.134521 658.211304,941.461121 654.385132,943.095581 
	C648.622192,945.557312 647.392517,954.973877 651.990723,959.481628 
	C654.437134,961.879944 655.050720,963.918335 654.549683,967.304260 
	C653.138245,976.842651 652.154785,986.455444 651.353394,996.068115 
	C650.980042,1000.547058 648.808594,1002.574707 644.643188,1002.150269 
	C635.876404,1001.257141 627.126404,1000.158203 618.400146,998.926575 
	C614.088501,998.317993 612.143555,994.931274 610.865540,990.996643 
	C597.942688,995.990906 585.593201,992.527832 573.235229,989.451294 
	C560.653442,986.318970 549.099731,980.874939 538.304382,973.757935 
	C533.843628,970.817017 529.552551,967.658264 525.864746,963.757263 
	C518.098145,955.541748 519.115417,944.512451 528.190552,937.724121 
	C534.888916,932.713562 542.768127,932.392456 550.594421,932.108398 
	C558.406311,931.824768 566.276062,932.403687 573.904602,930.107056 
	C576.263672,929.396790 577.812927,930.591553 578.977417,932.319275 
	C580.085022,933.962219 580.793945,935.872498 581.888916,937.525696 
	C582.855286,938.984741 584.278564,939.987000 586.146240,939.138428 
	C588.024414,938.285095 589.043945,936.711853 588.387146,934.679199 
	C587.831421,932.959412 586.896790,931.341553 585.983459,929.763245 
	C584.940186,927.960266 583.770386,926.352417 586.293335,924.698608 
	C588.583313,923.197571 590.028320,924.315369 591.401855,925.965454 
	C594.575989,929.778381 598.116272,933.305664 598.606873,938.744690 
	C598.838318,941.310852 599.477356,944.570129 603.325439,943.697815 
	C606.762878,942.918518 606.031738,939.868286 605.651184,937.490112 
	C604.914551,932.887573 603.902527,928.444214 600.116333,925.020386 
	C595.844910,921.157593 591.584595,916.964417 597.457642,910.292542 
	C576.786560,903.459839 555.467285,900.690002 537.347961,888.536682 
	C535.909302,889.059448 535.492249,890.804932 534.772705,892.215698 
	C526.220886,908.982727 517.418396,925.628906 510.402039,943.134766 
	C507.862854,949.470032 506.093781,950.193604 499.714508,947.448730 
	C492.526001,944.355652 485.474579,940.943848 478.283447,937.857239 
	C473.540924,935.821594 472.787262,931.639404 472.323334,927.310303 
	C459.593994,929.606628 450.019836,922.428955 440.230499,917.020752 
	C424.395569,908.272705 411.593567,895.902527 401.605560,880.737427 
	C397.587311,874.636353 394.854523,868.169678 398.870819,861.114929 
	C403.052277,853.770081 409.904694,850.864136 418.166229,850.857788 
	C423.092957,850.854004 427.713562,852.347961 432.295288,853.835144 
	C447.145844,858.655457 462.008362,859.448364 476.902588,854.225708 
	C479.387329,853.354492 480.431458,854.019592 481.455688,856.325256 
	C482.841309,859.444580 483.218994,862.721558 483.833557,865.983887 
	C484.273376,868.318726 485.247345,870.217529 488.106384,869.718628 
	C490.693634,869.267151 490.862335,867.201172 490.894623,865.109680 
	C490.960907,860.815552 489.668640,856.840271 487.597015,853.199951 
	C486.157990,850.671265 486.597870,849.227417 488.716217,847.293823 
	C493.940674,842.525269 493.696045,841.778748 487.728699,837.927429 
	C473.589539,828.802246 459.486206,819.621399 445.387604,810.433533 
	C440.239563,807.078613 439.878143,805.957458 442.904175,800.799377 
	C463.379120,765.898071 487.666016,733.768188 514.114563,703.225952 
	C526.995667,688.351196 540.642273,674.222839 555.465271,660.614929 
	C553.709167,661.038574 551.952942,661.461975 550.196899,661.885986 
	C538.150940,664.794983 530.124084,660.946716 525.298706,649.503479 
	C519.474487,635.691406 513.920776,621.765198 508.261078,607.883789 
	C495.810425,577.346436 483.357544,546.809875 470.939850,516.259094 
	C470.066772,514.111145 469.157379,511.897614 468.810211,509.631042 
	C467.731903,502.590912 470.904419,498.020081 478.314423,496.201508 
	C494.320709,492.273224 510.374542,488.538879 526.406189,484.713684 
	C528.780151,484.147278 531.313416,483.974091 533.192810,482.450470 
	C533.428284,480.475494 532.387207,479.266144 531.639160,478.028076 
	C514.249146,449.246246 505.394257,417.348541 497.769806,385.022797 
	C496.883942,381.266998 495.979279,377.993347 492.044403,376.385712 
	C491.013947,375.964722 489.879211,375.142853 489.374695,374.195099 
	C485.537445,366.986755 479.555542,361.723785 473.986115,355.938660 
	C464.459869,346.043488 465.801910,334.541199 471.547363,322.733154 
M682.622559,630.240906 
	C678.083618,631.299683 673.534790,632.318359 669.007874,633.426331 
	C661.255310,635.323730 653.446655,636.984802 646.009521,640.039612 
	C632.583862,645.554138 626.759033,657.550293 621.273315,669.508057 
	C604.876709,705.249512 591.058960,742.072388 576.146057,778.437378 
	C562.894592,810.751099 552.684448,843.903381 546.633972,878.334229 
	C545.727478,883.493103 546.912659,886.243591 552.011047,888.170654 
	C589.148499,902.208191 627.559692,909.287170 667.208069,910.025085 
	C670.855530,910.092957 672.059753,908.373291 672.737061,905.120911 
	C676.299622,888.012390 680.495667,871.063721 685.446899,854.290649 
	C695.227234,821.158020 709.118652,789.563232 721.353394,757.348328 
	C729.044861,737.096436 735.796692,716.567017 739.900757,695.233032 
	C740.432373,692.469604 739.809265,690.909851 737.467346,689.498779 
	C733.787354,687.281372 731.066528,684.150024 730.025330,679.858337 
	C728.892639,675.189453 731.133301,670.385254 735.196777,668.510620 
	C739.119934,666.700562 743.723999,668.056763 746.718628,671.877197 
	C748.899109,674.658936 749.708069,677.888489 749.275696,681.285583 
	C748.675354,686.002258 751.080200,687.489197 755.240234,687.696899 
	C762.259033,688.047363 769.179504,687.727051 776.078796,686.135742 
	C809.022278,678.537415 839.323486,664.382263 868.904297,648.563354 
	C885.649536,639.608582 900.510559,628.087219 912.275940,612.975769 
	C928.526917,592.103088 935.751343,568.760498 930.631165,542.377014 
	C928.917664,533.547668 925.626709,525.236633 919.184570,518.075439 
	C915.764709,521.083862 912.796814,523.956299 909.566223,526.494385 
	C887.208862,544.059937 861.383789,553.856750 833.995117,560.203857 
	C819.599915,563.539856 804.658142,564.190369 790.591370,569.172791 
	C788.822449,569.799438 787.027466,569.842285 786.427002,572.036926 
	C785.698059,574.701172 784.871582,577.338684 783.966980,580.394348 
	C792.190430,579.292419 799.681458,577.115417 807.235535,575.257263 
	C810.565857,574.437988 813.557373,574.590942 815.780457,577.560913 
	C822.243042,586.194946 818.118652,597.915466 807.758545,600.388733 
	C766.316345,610.282227 724.872498,620.168457 682.622559,630.240906 
M693.613220,438.305878 
	C693.977905,435.840240 694.319092,433.370850 694.711426,430.909637 
	C696.208618,421.517151 698.802124,412.398865 701.648254,403.345367 
	C702.369019,401.052734 703.746765,399.254608 706.340088,399.956177 
	C709.155518,400.717926 709.575989,402.984375 708.766968,405.568909 
	C708.070374,407.794373 707.336914,410.010651 706.723083,412.259216 
	C703.167908,425.282562 699.830750,438.359009 700.237427,452.013672 
	C700.559814,462.838989 707.751831,473.356445 717.337341,474.573639 
	C729.668091,476.139465 735.414368,482.425446 735.741699,494.451050 
	C735.777649,495.770905 736.098450,497.082001 736.270447,498.399323 
	C737.123047,504.927002 737.970032,511.455383 738.905273,518.647278 
	C744.997314,516.530701 750.518188,514.631409 756.248901,513.896362 
	C764.954651,512.779846 771.701782,508.467773 777.933289,502.553650 
	C797.750488,483.745758 816.436035,463.745300 837.312378,446.058685 
	C839.885437,443.878784 839.782593,442.211914 837.535339,439.951538 
	C830.245789,432.619476 822.813721,425.450012 814.752563,418.960297 
	C812.567566,417.201294 810.315125,415.196991 812.547668,412.337189 
	C814.926697,409.289551 817.351990,411.516266 819.401489,413.185760 
	C828.063293,420.241699 836.359802,427.705627 844.046021,435.824341 
	C847.330505,439.293640 848.593933,439.206177 851.186401,435.188660 
	C853.263611,431.969635 855.182312,428.624084 857.509949,425.594879 
	C871.519409,407.362885 887.952087,392.566650 911.315552,387.392395 
	C920.575623,385.341614 926.878662,388.898346 928.801819,397.890106 
	C929.064514,399.118011 928.785156,400.579529 929.952332,401.550507 
	C937.331909,394.996490 936.325134,385.033020 927.797668,380.617096 
	C925.589478,379.473541 923.253052,378.471771 920.864380,377.800903 
	C911.328247,375.122498 903.391052,369.957764 896.139282,363.274445 
	C878.570618,347.083008 859.151123,333.731201 836.022278,326.692017 
	C825.720276,323.556610 815.198975,321.217804 804.127747,321.191162 
	C803.820862,323.185150 803.559814,324.647064 803.374878,326.118561 
	C800.976685,345.204437 791.816956,360.024048 775.064636,369.628235 
	C752.251038,382.707367 727.645935,375.669769 717.476746,353.493744 
	C714.339478,346.652435 714.754578,345.568481 721.618164,342.978516 
	C721.435791,339.933624 721.134460,336.888184 720.046570,333.830078 
	C714.577209,335.215668 710.184753,337.870972 705.993530,340.899017 
	C697.967163,346.697815 691.379883,353.959656 684.857910,361.347107 
	C670.999268,377.044922 664.011780,396.473694 655.432678,415.013580 
	C650.257996,426.196167 645.980530,437.796143 637.724854,447.280426 
	C636.401062,448.801239 634.995850,450.492950 634.928223,452.841949 
	C652.005310,451.476990 656.362610,452.016693 664.561890,457.198914 
	C680.799194,467.461365 691.319214,481.967316 696.026794,500.586395 
	C696.957581,504.267609 697.622986,508.054108 696.573364,511.948883 
	C696.143494,513.544128 694.348022,515.522583 696.359009,516.975403 
	C698.538818,518.550232 700.498962,516.754089 702.220215,515.574646 
	C703.567017,514.651794 704.794861,513.416687 705.752930,512.087830 
	C711.608093,503.966858 716.529236,495.257996 721.531555,486.604645 
	C721.996033,485.801208 722.594788,484.845642 721.572876,483.483032 
	C714.055847,482.232635 706.740601,479.823334 701.301392,473.484253 
	C692.644653,463.395325 691.320618,451.716370 693.613220,438.305878 
M531.966431,646.488464 
	C536.410889,654.998901 539.633667,656.553223 548.759827,654.410583 
	C558.806396,652.051819 568.832642,649.606812 578.872070,647.217346 
	C654.174133,629.294434 729.478821,611.382690 804.777222,593.444641 
	C811.541443,591.833191 812.186523,590.168884 808.828491,582.691711 
	C774.014893,590.977417 739.098877,599.287415 703.915405,607.661133 
	C705.078186,610.557129 707.104675,613.600525 703.623718,615.366638 
	C700.260010,617.073059 697.969116,614.254333 696.195801,611.909424 
	C694.717285,609.954346 693.713989,607.583557 692.775879,605.284424 
	C674.718323,561.030640 656.656860,516.778259 638.746765,472.464752 
	C637.004272,468.153351 634.807190,466.451599 630.086121,467.586334 
	C580.572083,479.487122 531.027649,491.261017 481.502533,503.115906 
	C475.798676,504.481232 475.096985,506.005432 477.062622,511.612244 
	C477.447998,512.711548 477.894226,513.790222 478.333740,514.869751 
	C496.104004,558.516357 513.876648,602.162048 531.966431,646.488464 
M572.760986,766.329956 
	C590.101379,725.677185 604.045227,683.547913 625.952515,644.877625 
	C624.147583,643.898376 622.725586,644.538269 621.289001,644.876587 
	C610.760010,647.356201 600.320251,650.366089 589.675842,652.163269 
	C578.160400,654.107361 568.968201,659.718933 560.457092,667.235107 
	C543.812500,681.933899 528.403076,697.821716 514.086182,714.770874 
	C491.694641,741.279358 471.133759,769.123352 452.964172,798.718262 
	C450.557007,802.639099 450.723816,804.863586 454.932617,807.452393 
	C466.421997,814.519531 477.541229,822.184998 488.938843,829.405457 
	C504.559540,839.301208 520.241211,849.106628 537.313843,856.424072 
	C540.580872,857.824341 542.767883,858.166016 543.768127,853.692139 
	C550.438538,823.856934 560.851807,795.246948 572.760986,766.329956 
M728.985229,576.717712 
	C737.723328,569.910217 735.307861,582.027039 739.595154,582.952209 
	C741.648315,581.862122 742.318848,579.765198 743.097900,577.769775 
	C743.992615,575.477844 744.350708,572.642578 747.635498,572.589783 
	C750.805725,572.538940 750.823486,575.200439 751.687134,577.367126 
	C752.680725,579.859924 754.582886,582.334656 757.488892,582.111450 
	C760.096985,581.911011 760.729248,579.080994 761.443481,576.847900 
	C761.593323,576.379639 761.621704,575.863831 761.649170,575.366760 
	C761.776245,573.063110 762.334045,570.863464 764.915405,570.387634 
	C767.590271,569.894470 768.616943,571.853638 769.465576,574.042969 
	C770.345764,576.313782 772.455811,577.285095 774.671448,577.281799 
	C777.140015,577.278198 777.715210,574.964050 778.362488,573.109497 
	C779.017944,571.231140 779.461060,569.272339 779.903748,567.327454 
	C780.704895,563.807922 782.589722,562.023376 786.466309,561.846619 
	C799.033630,561.273560 807.715271,554.840515 812.592712,543.368713 
	C814.158630,539.685730 816.481812,537.554749 820.395569,536.444458 
	C837.618164,531.558350 854.078430,524.976013 869.069580,514.896362 
	C889.221497,501.346771 906.140869,485.125671 915.857300,462.289642 
	C924.293396,442.462402 925.743530,422.111816 921.743713,401.108734 
	C920.571106,394.951141 918.879761,393.781525 912.619812,394.936890 
	C893.368347,398.489990 880.167786,411.032440 867.718018,424.720428 
	C866.323547,426.253662 864.531433,427.680054 863.998230,430.432800 
	C866.577759,430.514862 869.338440,430.789917 869.457764,434.084961 
	C869.577820,437.397980 866.633728,437.862213 864.418762,438.793488 
	C859.651611,440.797821 854.911621,442.840790 850.584106,445.708710 
	C836.594482,454.980011 825.064758,467.067810 813.124329,478.659851 
	C802.127686,489.335602 791.460510,500.347717 780.074036,510.624939 
	C774.508850,515.647888 768.388672,519.214722 760.840942,520.534058 
	C755.128723,521.532532 749.494385,523.192505 743.969421,524.998779 
	C734.392395,528.129822 726.864136,533.748108 722.838684,543.419983 
	C721.178894,547.407898 719.083435,551.215881 717.153809,555.089600 
	C716.236816,556.930298 715.722290,558.710510 717.466736,560.923828 
	C718.896240,557.824158 719.997925,555.045471 721.430237,552.449097 
	C722.640686,550.254761 724.202454,547.781799 727.267090,549.320496 
	C730.290222,550.838440 729.428345,553.373352 728.235779,555.779785 
	C726.159973,559.968323 724.332031,564.272766 723.349670,568.850830 
	C722.079285,574.771973 720.932678,580.737854 722.857971,587.238037 
	C726.045593,584.183533 727.261658,580.724548 728.985229,576.717712 
M521.601868,350.085144 
	C520.590637,349.218933 519.567932,348.365723 518.570374,347.483978 
	C515.853516,345.082703 509.186401,346.147247 508.170258,349.620636 
	C506.315338,355.960907 502.382812,358.812256 495.965698,359.442993 
	C491.712250,359.861053 490.545776,363.042603 492.752441,366.686462 
	C493.808228,368.429871 495.147217,369.939575 497.033081,370.766998 
	C501.643616,372.789886 503.494293,376.612457 504.501129,381.267548 
	C507.491760,395.094910 510.975098,408.800201 515.426941,422.240479 
	C521.668457,441.083862 528.429138,459.678528 539.329102,476.502167 
	C541.536316,479.908905 543.657837,480.681702 547.477722,479.742920 
	C567.683960,474.776947 587.957764,470.086487 608.181885,465.191895 
	C610.518677,464.626373 613.109253,464.444489 614.975037,462.759155 
	C615.083801,461.082123 614.049988,460.135681 613.317566,459.049988 
	C605.492188,447.449951 597.664978,435.851196 589.836487,424.253235 
	C575.764893,403.405914 562.156860,382.227051 545.683594,363.109192 
	C541.988831,358.821259 539.770386,353.702820 539.683105,348.060242 
	C539.377075,328.286896 531.698975,312.857574 514.648926,302.036957 
	C505.968079,296.527740 499.469513,288.588318 494.985046,279.180969 
	C494.558563,278.286346 493.992798,277.432068 493.360229,276.667877 
	C492.404236,275.512970 491.299072,274.137268 489.635254,274.750732 
	C487.821381,275.419586 487.461243,277.336884 487.631531,278.966370 
	C488.033020,282.808868 489.304474,286.456085 491.202057,289.813263 
	C494.151855,295.032043 497.181183,300.209839 500.325623,305.313293 
	C502.668701,309.116119 502.107056,311.660431 497.891876,313.649261 
	C492.777863,316.062164 487.696564,318.626892 482.892944,321.597748 
	C473.444458,327.441315 470.676971,345.093475 482.000549,354.017639 
	C484.897278,356.300537 487.776886,356.844788 489.725616,352.748718 
	C490.951294,350.172516 492.816223,349.263947 495.377686,350.691071 
	C497.074951,351.636719 498.520844,351.787262 499.786285,350.172699 
	C501.245728,348.310608 500.350739,346.880310 498.981018,345.365234 
	C495.937378,341.998596 496.152924,338.047363 497.449707,334.081604 
	C499.038452,329.222931 502.650360,326.055908 506.810303,323.407806 
	C508.816162,322.130920 510.969788,321.487061 512.567322,323.730408 
	C514.290955,326.150818 513.108215,328.116608 510.865143,329.582214 
	C508.757812,330.959106 506.830200,332.540558 505.333282,334.582825 
	C504.294434,336.000214 503.671051,337.657440 504.615356,339.244385 
	C505.594635,340.890015 507.362030,340.206116 508.715576,339.818085 
	C511.425781,339.041107 514.068970,338.021423 516.718079,337.043030 
	C518.752563,336.291656 521.188477,335.902466 521.931091,338.187592 
	C523.457031,342.883057 526.894043,344.989319 531.060181,346.653473 
	C532.769165,347.336151 533.536133,348.938019 532.979675,350.783691 
	C532.338318,352.911224 530.593262,353.431793 528.605652,353.202637 
	C526.229126,352.928558 524.200073,351.751709 521.601868,350.085144 
M730.035400,274.326355 
	C729.911560,268.830933 730.109497,263.302185 729.544800,257.852448 
	C729.198059,254.505798 728.677124,250.561905 723.749634,249.552231 
	C723.102417,254.633224 720.426941,259.251495 725.814209,263.437195 
	C728.427917,265.467957 727.723572,268.950562 725.168640,271.378754 
	C723.982483,272.506104 722.430603,273.188904 722.656799,275.312042 
	C723.044617,278.952087 722.899475,282.670135 723.525330,286.260071 
	C727.364990,308.284210 727.869568,330.636597 729.868835,352.830078 
	C730.486511,359.686646 733.367126,363.111938 738.775330,365.672028 
	C743.371094,367.847504 748.237671,368.954742 753.323242,368.469574 
	C771.636169,366.722626 783.968018,356.705719 791.758789,340.470398 
	C792.660706,338.590881 792.743835,336.808868 792.322754,334.702301 
	C789.551392,320.838806 787.037048,306.924011 784.286804,293.056122 
	C783.542908,289.305176 784.866821,287.237549 788.457397,286.529419 
	C793.516907,285.531555 798.594910,284.625946 803.670349,283.710632 
	C812.525574,282.113708 821.578369,281.017761 828.393372,274.168457 
	C831.658997,270.886322 834.648071,267.130493 833.210571,262.287231 
	C831.663391,257.074707 826.996643,254.987885 822.002014,254.385696 
	C813.448792,253.354477 805.014343,254.293152 796.964844,257.482147 
	C790.719116,259.956604 786.054138,263.779785 786.005676,271.348419 
	C785.989685,273.844849 785.416687,276.741486 782.175842,276.907501 
	C778.984497,277.070953 778.300232,274.371216 777.720825,271.833374 
	C776.306274,265.637878 775.588013,259.385101 775.503052,253.016815 
	C775.466919,250.313995 775.801758,247.264542 773.120789,245.226227 
	C766.612915,240.278214 762.051208,233.767151 758.609924,226.477478 
	C757.422363,223.961777 756.263489,222.868515 753.316895,223.721924 
	C746.944946,225.567474 741.168823,223.947968 735.895081,220.066223 
	C734.630310,219.135284 733.662170,217.481155 731.718750,217.820740 
	C728.337219,221.987335 724.157288,233.630814 724.347656,238.224243 
	C724.390076,239.247772 724.375732,240.525803 725.393372,240.844086 
	C729.294434,242.064163 731.838379,245.308624 735.060974,247.444000 
	C736.862183,245.998520 738.336426,244.634796 739.983826,243.528915 
	C744.079041,240.779877 748.575500,239.979126 753.338257,241.366226 
	C755.462219,241.984787 756.856934,243.433960 756.415466,245.820984 
	C755.981689,248.166733 754.362183,248.973953 752.015991,248.877441 
	C743.557251,248.529480 738.411926,253.235718 738.083191,261.882080 
	C737.868164,267.538696 738.119995,273.212067 738.103516,278.877747 
	C738.095276,281.702362 738.425415,284.076416 741.758911,285.094666 
	C743.622070,285.663696 744.680908,287.399384 743.950623,289.512695 
	C743.265381,291.495270 741.663818,292.178802 739.617065,292.181030 
	C734.000366,292.187073 731.219177,289.759430 730.725769,284.242859 
	C730.458801,281.257965 730.265442,278.266510 730.035400,274.326355 
M728.602966,496.454224 
	C728.308472,495.372192 728.324890,494.147186 726.810303,493.128143 
	C724.882385,496.197235 722.949768,499.234009 721.057007,502.295288 
	C717.294434,508.380463 713.947876,514.767822 708.842102,519.901733 
	C704.563538,524.203796 698.984802,527.213257 693.561707,524.094116 
	C686.711060,520.153992 681.984375,522.292053 676.957764,526.596436 
	C675.959717,527.451111 674.761658,528.151550 673.544922,528.655579 
	C670.692749,529.837036 670.593750,531.565674 671.715454,534.206665 
	C675.944641,544.163818 679.955261,554.213501 684.101013,564.206360 
	C684.774719,565.830200 684.917419,567.824158 686.983337,568.893921 
	C693.569824,565.433716 700.809631,563.846802 708.332275,563.275757 
	C708.459473,560.534119 707.895447,557.933228 708.782654,555.997253 
	C714.008301,544.593323 717.486450,532.002075 728.751587,524.429504 
	C730.788696,523.060120 731.480225,521.574097 731.123840,519.023682 
	C730.111633,511.779083 729.461975,504.483826 728.602966,496.454224 
M911.079468,486.899170 
	C907.251953,491.283539 903.694336,495.943054 899.551270,500.005554 
	C879.450256,519.715820 856.132446,534.249390 828.789062,541.380798 
	C820.692932,543.492371 818.043335,548.888855 815.030579,555.836548 
	C824.112732,554.898926 832.316467,552.879517 840.508362,550.789490 
	C864.666565,544.625732 887.114502,534.891296 906.643799,519.081421 
	C912.215027,514.571228 916.389282,509.049225 918.299194,502.049347 
	C920.150879,495.263031 918.067566,490.572571 911.079468,486.899170 
M671.063965,521.414490 
	C677.153381,518.106750 682.446777,513.873596 686.203430,507.970215 
	C687.811157,505.443878 689.030334,502.896515 688.011902,499.559082 
	C683.012207,483.175079 673.129333,470.727356 658.305542,462.250061 
	C652.460022,458.907135 646.193726,458.479279 638.902771,460.423187 
	C643.188660,463.372681 644.527222,467.366089 646.094543,471.189758 
	C652.528198,486.886047 658.880737,502.615601 665.343384,518.299866 
	C666.218140,520.422729 666.692749,523.645935 671.063965,521.414490 
M704.829956,571.274231 
	C699.283142,571.759705 694.200928,573.476746 689.304077,576.857605 
	C692.246521,584.169678 695.094482,591.237915 697.934143,598.309448 
	C698.776611,600.407349 700.286316,600.842224 702.369446,600.313416 
	C708.313904,598.804382 714.277771,597.371704 720.737793,595.785339 
	C714.767517,591.258240 713.973572,585.304871 714.472412,578.968262 
	C715.079346,571.258545 715.130737,571.262085 707.224548,571.224915 
	C706.725464,571.222595 706.226257,571.236816 704.829956,571.274231 
M499.211914,897.482544 
	C501.780365,897.671936 504.299103,897.144043 504.310974,894.150146 
	C504.323303,891.037170 501.679016,890.213745 498.989624,890.107056 
	C496.562714,890.010742 494.392792,890.714844 492.691376,892.568237 
	C488.900635,896.697998 488.467133,905.433105 491.845581,909.816040 
	C494.501923,913.262451 500.096100,914.100891 502.957184,911.463562 
	C503.966217,910.533508 504.854370,909.458191 504.366699,907.981079 
	C503.929596,906.657288 502.973328,905.810486 501.548004,905.421570 
	C495.944794,903.892578 495.487152,902.670105 499.211914,897.482544 
M516.852112,862.837463 
	C519.857178,858.994202 517.200562,851.510864 511.680634,848.173340 
	C509.974030,847.141541 508.279388,846.700195 506.739227,848.299866 
	C505.173584,849.926086 505.576141,851.689148 506.968475,853.155945 
	C509.157043,855.461609 510.820831,858.070496 512.186096,860.922668 
	C512.964783,862.549438 514.309692,863.413330 516.852112,862.837463 
M495.502045,851.700623 
	C494.390717,856.508179 497.474335,860.496216 498.192139,864.959778 
	C498.420898,866.382263 500.311462,867.034058 501.943115,866.527954 
	C503.739075,865.970947 504.737976,864.558716 504.525299,862.744019 
	C504.121155,859.296021 503.679993,855.801575 501.737640,852.781250 
	C500.315826,850.570374 498.515076,849.411011 495.502045,851.700623 
M733.330750,592.862549 
	C734.618347,592.457825 735.906006,592.053162 737.477173,591.559326 
	C735.479370,590.159729 733.927246,589.072388 732.330322,587.953613 
	C730.597168,590.137756 729.082886,592.046021 727.202271,594.416016 
	C729.494934,593.844727 731.081787,593.449341 733.330750,592.862549 
M740.936768,676.951660 
	C739.979370,675.819214 738.467651,674.859619 737.833740,676.621887 
	C736.853699,679.346375 738.430298,681.161499 741.102295,682.095825 
	C742.089661,680.397949 741.792664,678.960632 740.936768,676.951660 
M747.222595,586.911621 
	C746.262024,587.904541 744.856262,588.527161 744.401978,590.433533 
	C746.647217,589.559570 748.995911,589.837097 750.782654,588.202820 
	C749.927673,586.953064 748.994446,586.451599 747.222595,586.911621 
z"/>
<path fill="#000000" opacity="1.000000" stroke="none" 
	d="
M199.020477,513.907349 
	C187.505844,494.423248 179.251724,473.886383 171.951965,452.932343 
	C171.107590,450.508514 170.391357,448.605347 167.331848,447.820679 
	C146.971786,442.599060 128.109619,433.871094 110.830696,421.986969 
	C67.696671,392.320251 41.248974,351.637695 31.147383,300.257233 
	C26.424784,276.236328 27.093393,252.259003 31.180828,228.275558 
	C31.618793,225.705734 31.341648,223.530334 30.444416,221.051514 
	C28.501308,215.683167 28.553823,210.170181 32.040539,205.322784 
	C33.572552,203.192902 33.714291,201.175354 33.351833,198.765671 
	C32.160580,190.845963 31.668177,182.865738 31.846779,174.859390 
	C32.066586,165.006012 35.661560,161.059631 45.377453,159.634567 
	C57.042263,157.923645 68.618683,158.313126 80.144508,160.799774 
	C83.293404,161.479111 86.083488,162.719986 86.593140,166.146912 
	C87.115486,169.659119 83.835495,170.236786 81.561295,171.438446 
	C76.841309,173.932465 72.011742,176.317368 68.445114,180.422592 
	C65.433907,183.888535 65.481148,187.913467 67.947884,191.520721 
	C70.059929,194.609253 73.415291,194.323746 76.538269,193.031494 
	C78.991959,192.016159 80.393776,189.774109 81.377182,187.501480 
	C83.292091,183.076172 84.866295,178.504272 86.622665,174.009125 
	C87.465912,171.850967 88.120552,169.221786 90.946472,169.095078 
	C93.971382,168.959457 95.324524,171.498962 96.029205,173.861328 
	C98.547234,182.302704 101.080040,190.748306 102.353638,199.510208 
	C103.427681,206.899200 100.222336,212.083191 94.228676,215.868256 
	C86.788704,220.566696 78.685143,223.502884 69.908173,224.281448 
	C65.992661,224.628784 62.615891,225.312469 61.706047,229.885269 
	C61.612808,230.353851 61.360485,230.920654 60.995800,231.186127 
	C53.871414,236.372452 55.288776,244.026855 55.213642,251.215210 
	C54.715782,298.848206 71.824806,339.368164 105.139809,373.062592 
	C119.612976,387.700562 136.812958,398.444031 156.195297,405.558319 
	C157.390488,405.997040 158.544571,406.972626 160.403076,405.901855 
	C159.728775,398.561523 158.915329,391.014496 158.365997,383.448303 
	C157.295547,368.704102 159.078857,354.793030 170.685928,343.985565 
	C171.301086,343.412781 171.894913,342.922424 171.938736,341.964844 
	C172.108902,338.246826 167.540054,331.765503 163.932022,330.937012 
	C149.848404,327.702972 146.193954,313.826630 147.076996,301.740479 
	C147.582672,294.819397 148.897659,286.688232 155.701370,284.214874 
	C164.062546,281.175323 164.653961,275.258423 166.293625,268.475586 
	C170.342621,251.726120 179.387192,237.968414 193.197678,227.540512 
	C219.896927,207.380615 253.435974,211.934799 274.843475,238.597198 
	C277.132599,241.448181 279.296722,244.436066 281.185059,247.562057 
	C283.100464,250.732849 285.365204,251.613724 288.631470,249.788223 
	C289.461456,248.023270 288.498138,246.522064 287.979675,244.994705 
	C282.940002,230.147400 276.857513,215.728607 270.137482,201.569565 
	C269.258728,199.718018 267.979401,198.274307 266.575562,196.821594 
	C264.202087,194.365433 263.935181,191.444733 265.799194,188.595688 
	C267.175629,186.491867 269.197113,185.328125 271.807373,186.406036 
	C274.948700,187.703232 276.621887,190.088165 275.901245,193.490585 
	C275.513184,195.322922 276.005157,196.709518 276.737793,198.230270 
	C284.191101,213.701569 290.710541,229.558945 296.181732,245.837326 
	C296.977692,248.205536 298.165375,249.701431 300.574585,250.768692 
	C314.322296,256.858917 322.124115,279.665497 315.076385,292.857697 
	C313.071716,296.610077 310.364807,299.805756 306.198273,301.243286 
	C303.542267,302.159668 303.094543,303.727448 303.692017,306.256592 
	C304.647308,310.300537 305.958618,314.405212 305.975311,318.488861 
	C305.995544,323.445923 308.285736,325.054749 312.646942,325.811798 
	C325.241119,327.997894 332.388336,336.030945 335.637604,347.998016 
	C336.901978,352.654724 338.136932,357.319427 339.386688,361.980103 
	C340.197693,365.004669 341.011200,368.028564 342.066040,371.955109 
	C348.770264,367.974243 354.355408,363.382172 359.747070,358.576569 
	C390.960205,330.756226 410.972290,295.910858 423.703979,256.488525 
	C428.524780,241.561340 431.186279,226.126572 434.777527,210.909592 
	C435.221680,209.027710 435.054932,207.367767 434.230682,205.609451 
	C433.385345,203.806122 432.338043,201.620056 433.115112,199.840347 
	C435.350739,194.719971 432.509705,191.385773 429.720490,187.800415 
	C426.336609,183.450607 423.650970,178.648026 421.080383,173.777878 
	C418.697266,169.262894 419.488983,165.480057 423.348022,162.210922 
	C434.129150,153.077789 446.622101,147.434021 460.237518,144.085541 
	C462.735718,143.471130 464.958435,144.250824 466.484009,146.244934 
	C468.149628,148.422165 466.756348,150.410522 465.440247,152.129913 
	C462.899445,155.449203 460.703461,158.967621 458.642670,162.597931 
	C456.242950,166.825302 455.237640,171.002579 458.710815,175.089691 
	C460.650391,177.372086 463.126617,176.866699 465.614777,175.977371 
	C470.783081,174.130051 472.106232,170.096252 471.652405,165.203934 
	C471.284332,161.235764 470.601654,157.297073 470.072754,153.343399 
	C469.762085,151.021103 469.194977,148.495255 471.753143,147.083344 
	C474.198029,145.733963 476.411835,146.991180 478.072845,148.684509 
	C484.831970,155.574890 491.775269,162.320023 496.956238,170.580414 
	C499.570160,174.747986 499.372101,178.665466 496.331665,182.588913 
	C490.885132,189.617371 484.782288,196.054779 477.500671,201.094666 
	C467.624054,207.930588 462.659058,216.808609 461.235779,228.927490 
	C456.074188,272.877533 439.006195,312.309052 413.861145,348.426514 
	C396.971588,372.686096 376.705872,393.732819 353.090424,411.510376 
	C351.129974,412.986237 350.861969,414.367554 351.166809,416.550110 
	C353.218658,431.241638 354.812195,445.994141 354.019867,460.847321 
	C352.635315,486.801636 347.232544,511.702484 332.860870,533.867371 
	C317.389221,557.728699 295.311798,566.337891 267.457489,561.993958 
	C236.779587,557.209656 214.436310,540.890015 199.020477,513.907349 
M344.629456,422.780365 
	C341.306824,399.162964 335.273529,376.137299 329.614136,353.018158 
	C326.672577,341.001404 320.081726,333.635498 307.407501,332.084015 
	C304.513763,331.729767 302.441650,332.080200 300.078094,333.774139 
	C272.884277,353.263855 242.456741,359.450562 209.593719,355.583252 
	C199.952484,354.448669 190.628830,352.140778 181.435410,349.076508 
	C176.790253,347.528198 173.126740,350.285034 170.179779,356.476044 
	C168.058395,360.932617 172.091858,361.674438 174.202713,363.089966 
	C195.445984,377.335663 218.852036,382.458710 244.148880,379.112061 
	C246.943634,378.742310 249.988358,378.359467 250.711288,381.748688 
	C251.485214,385.376892 248.381729,385.970184 245.635025,386.373260 
	C218.958664,390.287811 194.372620,384.578003 171.622116,370.337860 
	C170.143677,369.412476 168.953491,367.755188 166.780411,368.041962 
	C165.692505,370.548645 165.266052,373.143860 165.330246,375.819397 
	C165.578140,386.151764 166.936218,396.374207 168.306656,406.601379 
	C168.658630,409.227997 170.369110,409.747498 172.386017,410.172913 
	C176.624817,411.066986 179.668930,413.568665 181.302597,417.478790 
	C184.962402,426.238403 185.298294,434.986847 179.979614,443.252136 
	C178.476685,445.587708 178.060989,447.596130 178.918640,450.224304 
	C186.596497,473.752655 196.208176,496.404846 209.761688,517.195190 
	C214.679001,524.738098 220.547089,531.606812 227.629974,537.302429 
	C243.065689,549.714783 261.052490,554.969788 280.505188,555.530212 
	C296.181213,555.981934 309.404083,550.272888 320.005890,538.506958 
	C329.604462,527.854492 335.338470,515.198730 339.587402,501.757050 
	C347.679016,476.158783 347.976715,450.024200 344.629456,422.780365 
M215.850800,224.335602 
	C188.943329,231.929733 172.729370,259.318176 172.641846,278.813385 
	C175.242096,279.382629 178.191742,279.154144 180.194565,281.698547 
	C184.439224,287.091064 188.528870,292.589996 190.531784,299.236084 
	C194.257629,311.599304 193.691406,327.852112 177.466843,331.839142 
	C177.228592,331.897705 177.086365,332.347015 176.816223,332.732574 
	C177.450348,337.054260 179.265671,340.458008 183.861359,341.958588 
	C222.076385,354.436676 258.548645,351.774170 293.017914,329.899475 
	C298.032379,326.717163 299.550293,322.930481 298.498077,317.382751 
	C295.418457,301.145660 291.077545,285.280975 284.595459,270.063538 
	C279.545837,258.208923 273.617859,246.805740 264.116119,237.812866 
	C250.704803,225.119843 235.263931,218.980499 215.850800,224.335602 
M61.644115,195.633057 
	C56.023304,184.714813 57.956661,179.277344 71.586304,167.785416 
	C70.423454,166.257050 68.702545,166.357391 67.102493,166.311737 
	C60.281590,166.117111 53.475010,165.860428 46.689072,167.156479 
	C40.491833,168.340103 39.316387,169.215851 39.398338,175.630554 
	C39.485428,182.447556 40.072723,189.258926 40.474667,196.070801 
	C40.663189,199.265747 42.096756,201.078018 45.521908,201.792755 
	C52.787815,203.308975 59.188328,206.279022 61.684933,214.177628 
	C62.409416,216.469711 64.102013,217.067276 66.351097,216.993073 
	C75.611786,216.687561 83.957962,213.712051 91.542305,208.495316 
	C93.382202,207.229752 94.791466,205.560394 94.853149,203.181030 
	C95.008835,197.176163 93.477455,191.557678 91.210709,185.572510 
	C80.561020,202.819611 71.554466,205.969803 61.644115,195.633057 
M473.505646,180.108185 
	C467.626801,183.680618 461.203461,187.067688 455.101746,181.802628 
	C445.028625,173.110657 449.076569,163.262711 455.220337,153.273438 
	C445.236298,156.495346 437.024780,160.699356 429.758453,166.744598 
	C427.975494,168.227921 427.193024,169.470520 428.440857,171.762085 
	C431.234283,176.891937 434.435760,181.737122 437.928925,186.402954 
	C438.993378,187.824722 440.161102,188.550339 442.169495,188.129395 
	C452.899750,185.880478 462.310913,187.888718 469.310242,197.509659 
	C477.848053,192.258804 484.691467,185.624680 490.439392,177.795944 
	C491.175110,176.793869 491.478424,175.610275 490.718689,174.531998 
	C487.549957,170.034775 484.381500,165.522141 479.346008,161.476059 
	C479.273071,168.789505 479.152588,175.000732 473.505646,180.108185 
M310.419952,283.840485 
	C310.968597,275.091125 307.948395,267.522614 302.396454,260.984741 
	C298.549713,256.454834 293.515625,255.892349 287.782196,259.087769 
	C292.689819,269.887482 297.082092,280.957733 300.326172,292.443634 
	C301.081207,295.116821 302.862976,294.613861 304.616028,293.634247 
	C308.125854,291.672943 309.314087,288.229309 310.419952,283.840485 
M175.257690,287.785736 
	C171.632706,286.601868 168.220581,286.976837 164.730728,289.007751 
	C170.552704,300.116974 172.756958,311.611298 170.611298,323.734406 
	C178.940598,325.339294 183.948624,321.748901 184.743179,313.831207 
	C185.735672,303.940826 182.371597,295.556335 175.257690,287.785736 
M78.273109,364.786713 
	C79.548820,362.672821 80.824532,360.558899 82.165955,358.336121 
	C78.647713,353.120239 75.147484,347.931091 71.197601,342.075317 
	C66.923462,346.683411 61.420952,347.826660 55.733593,349.066956 
	C58.534164,355.444275 62.093433,360.855682 65.545029,366.309784 
	C68.852730,371.536530 70.458145,371.716858 75.393921,367.821686 
	C76.298088,367.108185 77.035324,366.183136 78.273109,364.786713 
M103.807014,407.675537 
	C104.470818,408.175018 105.200989,408.607208 105.787430,409.185181 
	C109.057213,412.407898 111.393555,411.663330 113.392616,407.721100 
	C115.056068,404.440704 116.478226,401.097931 117.375870,397.541992 
	C117.832695,395.732330 118.050591,393.879425 116.345993,392.501129 
	C112.764450,389.605408 109.159454,386.738708 105.208229,383.575165 
	C101.539909,388.946106 97.670143,393.638916 92.746017,397.699860 
	C95.938675,401.576813 99.761185,404.229889 103.807014,407.675537 
M128.355576,400.393829 
	C127.216232,399.880676 126.313835,398.579559 124.531998,399.420258 
	C123.016411,405.512634 120.217094,411.263458 116.650696,416.632721 
	C120.926720,420.052216 125.228348,422.214478 129.399704,424.586304 
	C130.797882,425.381287 132.144501,425.738495 133.519485,424.542938 
	C138.178406,420.491913 139.133194,414.893555 139.611496,409.246368 
	C139.976624,404.935455 135.567078,405.058685 133.230469,403.291107 
	C131.916473,402.297150 130.383224,401.593109 128.355576,400.393829 
M388.294525,341.733307 
	C382.708069,343.833374 380.532532,349.293518 376.220398,353.193481 
	C381.148529,357.882202 384.633423,363.049133 388.038849,368.852661 
	C393.138519,363.652069 397.239624,358.559387 400.965607,353.287445 
	C398.040833,348.083435 395.061249,343.340881 388.294525,341.733307 
M354.200470,373.828217 
	C344.643158,377.344788 343.586121,379.254456 345.873230,388.503204 
	C346.507568,391.068359 346.689270,393.762512 347.494415,396.263611 
	C348.314575,398.811371 347.714905,401.902283 349.959198,404.025879 
	C365.119385,393.210358 365.859711,395.110077 357.484467,378.316650 
	C356.753418,376.850830 355.653198,375.569153 354.200470,373.828217 
M60.412930,319.410797 
	C59.799679,318.533844 59.576183,316.510529 58.227772,317.265564 
	C53.981201,319.643311 49.155373,319.877808 44.401508,320.803162 
	C45.268414,326.087646 47.100117,330.352020 48.917992,334.602814 
	C51.943497,341.677399 58.644432,342.968811 64.700447,337.820557 
	C66.738594,336.087891 67.503708,334.489136 66.084702,331.839203 
	C64.048157,328.036011 62.449905,323.998169 60.412930,319.410797 
M97.918167,380.783997 
	C98.566734,379.663483 99.741203,378.540436 98.531807,377.206573 
	C94.904976,373.206573 91.203308,369.274384 87.095268,364.846161 
	C83.874222,370.809845 79.468918,374.511993 74.702408,377.406830 
	C75.042023,379.759216 76.380135,380.864655 77.476852,382.064697 
	C87.061485,392.552521 85.860451,396.889679 97.918167,380.783997 
M361.347809,370.640442 
	C365.240143,375.579407 367.012299,381.688995 370.084412,387.360199 
	C371.701874,385.984711 373.003235,384.957001 374.216248,383.833923 
	C383.845947,374.918335 383.927246,373.623322 375.590485,363.433197 
	C371.495453,358.427734 370.692017,358.398285 365.894409,362.951447 
	C364.450012,364.322174 362.986115,365.682556 361.433807,366.926178 
	C360.195648,367.918152 359.585632,368.843384 361.347809,370.640442 
M403.445343,321.019592 
	C397.990662,323.881195 396.499023,329.817841 392.390472,334.394958 
	C397.760040,337.692749 402.627991,340.811462 405.806641,346.931091 
	C410.180206,340.564301 414.301544,335.155640 417.368073,328.998199 
	C412.686310,325.985199 409.128387,322.323975 403.445343,321.019592 
M427.023712,312.601715 
	C427.755219,310.477570 429.956024,308.770905 429.110046,306.215759 
	C428.454529,304.235840 418.177032,298.470276 415.907257,298.707764 
	C415.321594,298.769043 414.503418,299.066956 414.254913,299.513672 
	C411.645721,304.204620 409.130615,308.947876 406.430420,313.972687 
	C412.513123,316.188568 417.344757,318.847046 420.904694,323.650452 
	C422.980499,319.914001 424.832764,316.579956 427.023712,312.601715 
M55.298668,304.981079 
	C53.942616,300.055389 52.586563,295.129700 51.096359,289.716705 
	C46.703228,291.699615 42.198883,291.155212 37.129185,291.795502 
	C38.248112,297.400360 39.458004,302.516815 40.247963,307.697327 
	C40.962910,312.385956 43.934586,313.221375 47.782578,312.610229 
	C51.732758,311.982880 56.038921,311.494690 55.298668,304.981079 
M422.983521,280.398010 
	C421.503021,283.859894 420.022491,287.321808 418.340240,291.255402 
	C423.922424,293.093140 428.277618,296.328186 433.103821,298.690063 
	C435.982513,294.866455 436.896973,290.752289 438.717010,287.078033 
	C440.899811,282.671265 439.255463,279.869049 435.257812,277.811859 
	C430.077393,275.146027 425.820801,275.786011 422.983521,280.398010 
M155.930679,431.301208 
	C158.806549,426.885437 158.879807,421.940094 158.680634,416.931152 
	C158.621231,415.437317 157.982651,414.365570 156.613602,413.845367 
	C153.720474,412.746063 151.009537,411.046997 147.702820,410.920837 
	C145.739609,413.861389 146.058456,417.361115 144.963470,420.452057 
	C143.803741,423.725708 141.687332,426.460022 140.028259,429.456085 
	C142.400604,431.624756 145.200119,432.279022 147.682556,433.536316 
	C150.771698,435.100952 153.401230,434.879059 155.930679,431.301208 
M438.495178,229.097900 
	C437.531616,233.308701 436.534973,237.512344 435.622772,241.734253 
	C435.312592,243.169876 434.818909,245.212250 436.869568,245.408539 
	C441.507141,245.852463 445.679901,247.830536 450.421631,249.405579 
	C451.411438,244.058548 452.309814,239.181580 453.220215,234.306870 
	C453.410736,233.286758 453.334564,232.415939 452.592285,231.544785 
	C449.941986,228.434235 443.195160,226.859894 438.495178,229.097900 
M431.580078,268.833252 
	C435.705017,269.460419 439.369049,271.344879 443.067566,273.521332 
	C445.641510,268.901459 446.445282,264.145020 447.757294,259.566071 
	C448.042633,258.570343 448.072571,257.587128 447.069427,256.899902 
	C443.270294,254.297180 439.171631,252.523788 434.474945,253.297073 
	C431.513336,253.784698 427.520508,265.879333 429.409943,268.326050 
	C429.649506,268.636261 430.338135,268.599670 431.580078,268.833252 
M167.552521,417.115631 
	C164.845993,423.974182 166.072006,432.008850 160.275482,438.217773 
	C165.216980,439.532898 169.578552,442.615662 173.282684,439.049866 
	C177.797104,434.704071 176.976273,428.776611 175.603195,423.176086 
	C174.673737,419.385132 172.363297,417.110596 167.552521,417.115631 
M48.549316,272.016693 
	C48.039570,270.191162 48.327324,267.549194 45.603371,267.531982 
	C42.283718,267.511047 39.179539,266.298401 35.715137,265.986694 
	C35.034920,269.988983 35.144398,273.779541 35.589474,277.530457 
	C36.229313,282.922791 38.604053,284.598663 43.974552,283.794983 
	C48.845486,283.066040 49.747128,281.594116 48.909344,275.811035 
	C48.767067,274.828918 48.721344,273.832825 48.549316,272.016693 
M39.775105,258.812500 
	C46.862942,260.719025 47.675812,260.200195 47.581875,252.997864 
	C47.549465,250.512787 49.031036,247.303650 46.250988,245.674240 
	C43.484734,244.052948 40.217472,243.286453 36.767590,241.994476 
	C36.322552,245.776703 35.916603,249.179825 35.526260,252.584732 
	C35.450916,253.241943 35.439152,253.906311 35.393761,254.567093 
	C35.215847,257.156952 37.088230,257.902252 39.775105,258.812500 
M451.152008,208.377945 
	C443.138672,206.660324 441.295013,208.683105 441.345764,219.419128 
	C445.627136,220.198303 449.890350,221.327896 454.023682,223.019806 
	C455.163208,220.793243 455.566132,218.698868 455.653656,216.555252 
	C455.787750,213.270233 456.497498,209.661743 451.152008,208.377945 
M42.430626,209.110855 
	C37.446934,208.762253 36.580891,211.423431 37.469276,215.689514 
	C45.092690,215.869415 50.966232,218.840347 54.769688,225.772858 
	C57.157917,216.358322 53.367828,211.131805 42.430626,209.110855 
M455.517303,195.786682 
	C453.408722,195.364090 451.317261,194.744080 449.188049,194.559036 
	C444.412354,194.144028 441.920746,196.057861 441.420776,200.405029 
	C448.991364,199.459061 455.990509,200.932236 462.403931,206.168320 
	C463.283203,200.287033 460.384247,197.779587 455.517303,195.786682 
M45.135437,225.588394 
	C43.708992,224.857758 42.483528,223.550583 40.659668,223.981216 
	C36.281101,232.160522 37.936459,235.645416 47.188732,237.180908 
	C47.843632,233.291473 48.753468,229.463272 45.135437,225.588394 
z"/>
<path fill="#000000" opacity="1.000000" stroke="none" 
	d="
M165.170166,169.308167 
	C148.205048,172.271484 131.673813,175.198349 115.141220,178.117477 
	C110.985405,178.851242 108.235191,178.089539 107.376518,173.051239 
	C102.016335,141.600037 96.419945,110.189072 90.894432,78.766075 
	C90.410698,76.015144 90.863358,73.521988 92.474876,71.174065 
	C94.923569,67.606392 97.229004,63.940693 99.622200,60.334484 
	C100.543556,58.946136 101.451469,57.150627 103.101952,56.909492 
	C108.900673,56.062302 111.207664,51.520615 113.676781,47.244549 
	C115.602379,43.909756 118.305283,42.378506 122.027222,41.755295 
	C142.522522,38.323528 162.995132,34.755730 183.470306,31.204615 
	C190.876541,29.920115 191.915604,30.619362 193.157181,37.809963 
	C199.007538,71.692337 204.822662,105.580994 210.801727,139.440674 
	C211.556229,143.713455 210.231430,145.822189 206.070251,146.382721 
	C205.576797,146.449188 205.091751,146.579361 204.603668,146.684128 
	C195.503754,148.637421 195.442139,148.647308 196.945236,158.131485 
	C197.521561,161.768051 196.433167,163.855576 192.618057,164.496033 
	C183.600281,166.009827 174.606827,167.668671 165.170166,169.308167 
M197.116013,104.211662 
	C193.323639,82.462585 189.531250,60.713509 185.667084,38.552696 
	C179.725632,39.535385 174.500336,40.363071 169.288605,41.268780 
	C156.009567,43.576447 142.736633,45.919323 129.461121,48.247246 
	C126.960289,48.685780 125.109039,49.391712 125.505951,52.714752 
	C126.546463,61.426060 126.458351,61.593334 117.580299,63.088398 
	C114.413704,63.621658 113.354729,64.503220 114.002808,67.900169 
	C115.965897,78.189720 117.563217,88.548920 119.315636,98.878845 
	C122.041481,114.946793 124.776894,131.013107 127.510201,147.079788 
	C128.032425,150.149429 128.958435,152.378632 132.979095,151.661758 
	C154.775696,147.775497 176.593964,144.008789 198.423050,140.308762 
	C201.980301,139.705811 203.096405,138.208496 202.403137,134.563858 
	C200.537964,124.758339 199.003952,114.889832 197.116013,104.211662 
M117.746040,133.486221 
	C113.825851,111.155975 109.905655,88.825722 105.985466,66.495476 
	C105.526917,66.461884 105.068359,66.428284 104.609810,66.394691 
	C102.834816,71.110107 97.666130,73.886612 98.870766,80.430138 
	C103.023849,102.989685 106.570038,125.660278 110.585426,148.246262 
	C111.880089,155.528580 112.620522,162.969330 115.026421,170.455902 
	C120.349823,169.522598 125.240623,168.643341 130.139267,167.810226 
	C148.188904,164.740540 166.243515,161.700043 184.290665,158.615952 
	C188.645645,157.871719 190.123672,154.855927 187.799957,151.596207 
	C186.153580,149.286606 183.856552,150.314697 181.837204,150.663864 
	C164.129242,153.725693 146.429153,156.834457 128.740891,160.008102 
	C124.516129,160.766098 122.057762,159.571304 121.388962,155.003311 
	C120.377312,148.093674 119.057709,141.229126 117.746040,133.486221 
z"/>
<path fill="#000000" opacity="1.000000" stroke="none" 
	d="
M500.334198,31.375877 
	C503.892029,33.286301 505.755157,31.877369 507.558258,29.086737 
	C512.340759,21.684816 513.636475,21.568726 520.577271,27.322992 
	C533.127502,37.727810 540.037598,51.137527 541.845215,67.281517 
	C542.299866,71.342461 540.541077,73.061676 536.559753,73.333931 
	C528.890625,73.858376 528.897461,73.958572 527.397095,81.683083 
	C523.042847,104.101028 500.742310,120.168724 478.299835,117.058037 
	C454.304657,113.732132 437.753235,92.885742 439.369080,69.387772 
	C441.449768,39.129513 473.150391,20.068905 500.334198,31.375877 
M470.257477,107.340302 
	C481.304321,111.226311 491.935028,110.737579 502.704712,104.544609 
	C495.957764,95.988930 489.753357,87.768013 483.145935,79.884850 
	C479.602692,75.657486 479.233307,72.179466 482.560944,67.524406 
	C488.074219,59.811916 492.850647,51.576874 498.126312,43.688255 
	C500.201691,40.584961 499.570587,38.955471 496.181274,37.818687 
	C491.243469,36.162510 486.216827,34.923004 481.005035,35.536308 
	C463.712158,37.571274 449.964600,49.751595 447.383087,65.134155 
	C444.239532,83.865761 452.202026,98.913307 470.257477,107.340302 
M502.632660,75.320534 
	C498.733185,75.400711 494.805603,75.304283 490.569519,76.980087 
	C496.407257,85.137657 502.378082,92.513718 509.145233,99.720757 
	C515.486511,93.589218 518.976257,86.615463 520.586304,78.610153 
	C521.265015,75.235443 519.760498,74.065941 516.496704,74.370430 
	C512.200745,74.771210 507.888611,74.998001 502.632660,75.320534 
z"/>
<path fill="#000000" opacity="1.000000" stroke="none" 
	d="
M401.712769,272.071289 
	C391.884674,275.078003 382.167450,274.070435 372.543060,274.036316 
	C368.695496,274.022705 366.192749,274.784149 364.209167,278.587616 
	C360.458862,285.778717 353.720215,289.493805 346.168396,291.825836 
	C343.984528,292.500214 342.132629,292.124817 341.098053,289.962341 
	C340.160767,288.003235 341.033203,286.462189 342.607910,285.166351 
	C343.627655,284.327148 344.715698,283.479004 345.463531,282.416840 
	C349.316284,276.944916 348.220184,274.347198 341.681061,273.193146 
	C326.664520,270.542908 314.792511,256.144958 314.938171,240.760330 
	C315.093842,224.319077 326.854187,210.223221 342.831940,207.745468 
	C353.751221,206.052155 364.788483,207.282974 375.769867,207.055450 
	C381.757080,206.931442 387.822174,206.676147 393.731628,207.427750 
	C410.505585,209.561142 421.637970,220.872986 423.852570,237.332230 
	C425.769958,251.582657 416.885406,265.713837 401.712769,272.071289 
M381.470886,266.673645 
	C384.799988,266.629517 388.146515,266.789276 391.455200,266.506195 
	C406.221619,265.243011 417.296997,253.467926 416.582306,239.942947 
	C415.803375,225.202469 404.840515,215.023697 389.588867,214.972275 
	C375.935699,214.926254 362.282104,215.001175 348.628998,214.948547 
	C342.786011,214.926025 337.376678,216.166153 332.781372,219.940475 
	C323.970673,227.177109 320.592377,236.324997 323.467712,247.491074 
	C326.145172,257.888641 334.733002,265.025848 346.110718,266.513184 
	C355.030884,267.679260 355.027161,267.679413 355.414856,276.642609 
	C355.422546,276.820221 355.833405,276.980347 356.087158,277.172058 
	C357.665863,275.817596 358.594269,274.015717 359.023468,272.071259 
	C359.930328,267.963196 362.229492,266.313110 366.499023,266.605408 
	C371.139282,266.923065 375.818298,266.674683 381.470886,266.673645 
z"/>
<path fill="#000000" opacity="1.000000" stroke="none" 
	d="
M332.823120,181.006409 
	C325.699432,180.756699 319.043762,181.487305 312.394989,180.561264 
	C293.752777,177.964798 281.873962,163.768417 282.699646,144.912354 
	C283.422424,128.407227 297.768433,114.611465 315.560944,114.054657 
	C329.703094,113.612083 343.877838,113.649879 358.023529,114.024384 
	C375.708618,114.492592 390.249512,127.852943 391.290741,143.942368 
	C392.527954,163.060242 381.625214,176.954559 362.647797,180.479095 
	C361.529205,180.686844 360.447266,181.091827 359.128845,181.467575 
	C358.802917,185.697632 360.171417,189.009247 363.338104,191.641205 
	C365.025665,193.043823 366.910645,194.507553 365.408630,197.047043 
	C363.898407,199.600510 361.609406,199.209961 359.243774,198.381363 
	C352.494904,196.017532 346.139313,192.840973 342.768677,186.245285 
	C340.596985,181.995712 337.786224,180.356155 332.823120,181.006409 
M343.490692,173.499573 
	C348.349060,174.921188 346.224548,181.415054 350.527313,183.529068 
	C351.358765,173.478424 351.358765,173.478424 358.838501,173.023117 
	C374.049438,172.097198 384.118866,161.573456 383.876282,146.855743 
	C383.643341,132.724823 372.414001,121.669525 357.683716,121.457405 
	C343.857483,121.258316 330.022766,121.219910 316.198059,121.464706 
	C301.863495,121.718529 290.648895,132.485306 290.146057,145.983139 
	C289.597443,160.711716 298.759979,171.137009 313.751770,173.089737 
	C323.397705,174.346161 333.040009,172.086990 343.490692,173.499573 
z"/>
<path fill="#000000" opacity="1.000000" stroke="none" 
	d="
M314.252991,86.764038 
	C313.526215,86.045860 313.007080,85.615005 312.585693,85.103561 
	C307.255768,78.634468 302.572937,74.795517 292.487457,78.924072 
	C278.122467,84.804489 262.590729,74.523376 258.358276,59.027508 
	C254.447647,44.709946 263.060211,29.205034 277.239868,25.035564 
	C292.610016,20.516031 307.975555,28.637753 312.617035,43.598961 
	C315.135284,51.716206 314.488373,59.464054 309.905731,66.584496 
	C308.133087,69.338768 308.617462,70.900681 310.751190,72.929558 
	C315.335449,77.288597 319.754852,81.822289 324.200287,86.325424 
	C325.800232,87.946167 327.147736,89.848106 325.214386,91.986908 
	C323.167114,94.251762 321.013550,93.342857 319.119202,91.582588 
	C317.534607,90.110146 316.040344,88.540512 314.252991,86.764038 
M296.334839,34.066742 
	C287.411743,29.592815 278.279480,30.432713 271.668976,36.335255 
	C265.568848,41.782085 263.248993,51.350101 266.112091,59.253799 
	C269.192871,67.758369 276.902405,72.976189 286.196991,72.847282 
	C295.279205,72.721321 302.822937,67.103928 305.636749,58.371597 
	C308.582275,49.230515 305.462128,40.611275 296.334839,34.066742 
z"/>
<path fill="#000000" opacity="1.000000" stroke="none" 
	d="
M827.542114,976.712891 
	C831.091858,983.542786 831.324036,990.082642 827.739624,996.540466 
	C825.517029,1000.544678 822.195068,1003.271606 817.408569,1003.207153 
	C812.479309,1003.140808 809.023743,1000.449524 806.809875,996.145996 
	C804.169250,991.012878 803.937256,985.635803 805.617859,980.205566 
	C807.145508,975.269592 810.302246,971.739624 815.548462,970.813110 
	C820.654785,969.911255 824.602905,972.004395 827.542114,976.712891 
z"/>
<path fill="#000000" opacity="1.000000" stroke="none" 
	d="
M875.836426,998.750793 
	C867.505554,1006.005249 858.364502,1003.549316 854.974609,993.509094 
	C853.497253,989.133606 853.269165,984.773132 854.868713,980.350708 
	C857.277405,973.690369 862.295837,970.032349 868.257141,970.718079 
	C873.691284,971.343140 878.403809,976.326172 879.169678,982.726440 
	C879.829712,988.242188 879.543762,993.692810 875.836426,998.750793 
z"/>
<path fill="#000000" opacity="1.000000" stroke="none" 
	d="
M915.188477,970.717773 
	C923.517395,971.294434 928.067566,976.203857 929.092834,985.251282 
	C929.919495,992.546631 925.333374,1000.783569 919.336182,1002.751099 
	C916.312195,1003.743103 913.359924,1003.480896 910.717651,1001.738159 
	C903.759766,997.148987 902.689636,990.179260 903.805237,982.757629 
	C904.740662,976.534424 908.157288,972.042175 915.188477,970.717773 
z"/>
<path fill="#000000" opacity="1.000000" stroke="none" 
	d="
M682.558960,297.470642 
	C679.646057,299.074677 677.065369,300.544769 674.362793,301.738892 
	C672.470947,302.574799 670.740906,301.939423 669.757507,300.071320 
	C668.757935,298.172577 669.322754,296.430725 671.083740,295.366486 
	C673.330933,294.008453 675.722839,292.884033 678.083008,291.720947 
	C679.851929,290.849243 681.595093,290.778412 683.047546,292.373718 
	C684.560181,294.035156 684.194275,295.658752 682.558960,297.470642 
z"/>
<path fill="#000000" opacity="1.000000" stroke="none" 
	d="
M689.464722,320.352966 
	C688.394287,321.882233 687.590088,323.140137 686.728088,324.357025 
	C685.790283,325.680817 684.503235,326.523926 682.886292,325.931915 
	C680.526794,325.068085 679.559875,323.423859 680.413574,320.833191 
	C681.822327,316.558014 685.872986,312.898773 688.398499,314.025543 
	C691.337036,315.336517 691.644653,317.534668 689.464722,320.352966 
z"/>
<path fill="#000000" opacity="1.000000" stroke="none" 
	d="
M677.493835,272.469971 
	C677.795288,275.292847 676.474304,276.766449 674.144470,276.606537 
	C671.626282,276.433716 669.170349,275.413910 668.231628,272.749481 
	C667.317444,270.154785 669.887756,267.770142 672.621399,268.702362 
	C674.482117,269.336884 676.309082,270.272217 677.493835,272.469971 
z"/>
<path fill="#000000" opacity="1.000000" stroke="none" 
	d="
M594.128052,572.914185 
	C587.637817,581.061584 579.961365,582.242493 572.108826,576.640381 
	C569.498901,574.778381 568.367126,572.851746 570.079834,569.513672 
	C572.914551,563.988708 570.948914,559.257141 565.099243,557.464966 
	C562.227722,556.585327 561.370422,554.973999 561.631470,552.361938 
	C562.262939,546.044739 564.790649,540.713440 570.661621,537.796814 
	C576.677612,534.808228 582.403625,536.433594 587.459656,540.292480 
	C596.258118,547.007629 600.901855,562.079102 594.128052,572.914185 
z"/>
<path fill="#000000" opacity="1.000000" stroke="none" 
	d="
M764.394775,296.927307 
	C765.736084,303.218628 762.954956,308.912415 757.742981,311.211151 
	C755.135315,312.361267 745.357239,306.668274 745.201233,303.870667 
	C745.093323,301.935822 746.277161,300.652161 747.915894,300.141510 
	C751.302124,299.086304 754.111877,297.086914 757.070740,295.267365 
	C759.682739,293.661072 762.393738,293.163025 764.394775,296.927307 
z"/>
<path fill="#000000" opacity="1.000000" stroke="none" 
	d="
M801.847412,266.609406 
	C804.290100,265.924255 806.339111,265.213409 808.447754,264.886078 
	C810.638489,264.545990 812.482117,265.437378 813.003662,267.741241 
	C813.536560,270.095306 812.191406,271.604309 810.005371,272.131927 
	C806.756165,272.916168 803.697144,274.059296 800.800537,275.745605 
	C798.681274,276.979370 796.490479,276.850891 795.197144,274.561920 
	C793.882507,272.235443 795.108337,270.413269 797.130188,269.134644 
	C798.524658,268.252777 800.026306,267.540405 801.847412,266.609406 
z"/>
<path fill="#000000" opacity="1.000000" stroke="none" 
	d="
M753.439697,267.974731 
	C750.851196,270.927521 748.121399,271.479523 745.470581,268.991058 
	C743.300598,266.954102 743.136658,264.291809 744.801208,261.777802 
	C746.155212,259.732849 747.973755,258.236298 750.620239,259.441772 
	C754.311096,261.122955 755.025818,264.027710 753.439697,267.974731 
z"/>
<path fill="#000000" opacity="1.000000" stroke="none" 
	d="
M271.231079,442.647278 
	C272.735565,445.929138 270.278320,447.573700 269.057739,449.602173 
	C267.440674,452.289520 265.659027,454.877777 263.956726,457.495361 
	C269.905823,461.705872 270.577332,468.554993 265.899719,474.831329 
	C261.181122,481.162659 254.196503,483.547211 246.479904,481.461304 
	C232.302475,477.628937 225.302856,462.436188 231.734879,449.457062 
	C237.068146,438.695099 249.462524,435.696594 259.084869,442.851776 
	C260.131592,443.630127 261.122925,444.482971 262.164520,445.321014 
	C265.086182,443.923767 266.423920,438.037109 271.231079,442.647278 
M252.261978,474.761017 
	C258.919556,473.475891 261.679016,470.016083 261.197021,463.558258 
	C255.951996,469.205566 255.951874,469.205750 249.072906,464.783844 
	C247.675629,463.885681 246.228775,463.054504 244.894775,462.070465 
	C242.964279,460.646484 241.855545,458.799530 243.425552,456.534882 
	C244.862350,454.462433 246.782425,454.988068 248.743011,455.951874 
	C255.298843,459.174774 255.661560,458.990936 257.959534,451.821991 
	C257.103302,451.040985 256.267944,450.235565 255.387497,449.482880 
	C248.490768,443.586731 239.320480,446.687164 237.340225,455.577545 
	C235.079941,465.725128 240.769775,473.457031 252.261978,474.761017 
z"/>
<path fill="#000000" opacity="1.000000" stroke="none" 
	d="
M290.712677,433.626221 
	C298.113403,431.510620 305.127350,429.518677 312.112518,427.430298 
	C314.717224,426.651581 317.274231,426.287292 318.352081,429.388794 
	C319.491882,432.668488 316.963562,433.712311 314.460571,434.509735 
	C304.352722,437.730103 294.152710,440.618774 283.803864,442.963470 
	C281.175262,443.559052 278.562622,443.571411 277.907471,440.276245 
	C277.287811,437.159576 279.837067,436.446167 282.129639,435.817963 
	C284.846313,435.073456 287.585205,434.410095 290.712677,433.626221 
z"/>
<path fill="#000000" opacity="1.000000" stroke="none" 
	d="
M306.764648,448.978271 
	C299.634369,450.859833 292.887329,452.655243 286.114777,454.348511 
	C283.733276,454.943878 281.170593,455.092102 280.478058,452.000427 
	C279.803101,448.987244 282.126648,447.943909 284.490692,447.291412 
	C291.224487,445.432739 297.980347,443.654083 304.715393,441.799835 
	C307.113892,441.139496 309.591736,440.755280 310.739685,443.501068 
	C312.095398,446.743927 309.569885,447.883911 306.764648,448.978271 
z"/>
<path fill="#000000" opacity="1.000000" stroke="none" 
	d="
M305.991516,455.823273 
	C308.936584,454.395111 311.412964,454.334351 312.591278,457.348969 
	C313.743713,460.297211 311.316650,461.485992 309.165344,462.469360 
	C303.552277,465.034973 297.703491,466.957001 291.653625,468.130890 
	C288.988647,468.648041 285.493439,469.639618 284.735992,465.598297 
	C284.032318,461.843658 287.481018,461.554901 289.978760,460.989594 
	C295.350037,459.773834 300.540192,458.050415 305.991516,455.823273 
z"/>
<path fill="#000000" opacity="1.000000" stroke="none" 
	d="
M321.608704,455.345520 
	C321.957123,458.386383 320.527771,459.748688 318.020416,459.904022 
	C316.398926,460.004486 315.155975,459.069855 314.672455,457.475189 
	C314.193054,455.894135 314.666962,454.462708 316.045166,453.553772 
	C318.318665,452.054413 320.092957,452.869904 321.608704,455.345520 
z"/>
<path fill="#000000" opacity="1.000000" stroke="none" 
	d="
M258.004364,381.091644 
	C258.380493,378.390289 259.664368,377.051819 262.092865,377.408997 
	C263.748413,377.652496 264.707855,378.882843 264.896332,380.510437 
	C265.091553,382.196106 264.256958,383.469757 262.658722,383.973846 
	C260.355499,384.700378 258.782410,383.785797 258.004364,381.091644 
z"/>
<path fill="#000000" opacity="1.000000" stroke="none" 
	d="
M314.907501,445.249939 
	C312.843475,443.322144 312.859283,441.521637 314.556549,439.848572 
	C315.737457,438.684570 317.192535,438.507599 318.613983,439.527527 
	C319.966217,440.497833 320.588898,441.875488 319.939941,443.422455 
	C319.069641,445.497101 317.575195,446.597504 314.907501,445.249939 
z"/>
<path fill="#000000" opacity="1.000000" stroke="none" 
	d="
M205.754333,303.912598 
	C201.592819,291.723022 204.844666,285.020447 216.456635,281.235382 
	C228.625641,277.268738 240.880402,273.605072 253.494568,271.315033 
	C258.447571,270.415802 263.423462,270.194855 268.225403,272.174011 
	C278.119598,276.251923 281.206329,287.550476 274.835175,296.132629 
	C270.980225,301.325348 265.572998,304.335327 259.627350,306.030548 
	C249.252258,308.988739 238.792053,311.760132 228.223312,313.896393 
	C217.308731,316.102600 210.708160,312.888702 205.754333,303.912598 
M229.048996,301.597900 
	C231.499649,298.077454 230.891159,295.057098 227.467743,292.607697 
	C224.849258,290.734192 222.376144,291.350128 220.386139,293.591370 
	C218.303192,295.937317 217.810303,298.644257 219.929520,301.256805 
	C222.446060,304.359192 225.388290,304.731537 229.048996,301.597900 
M251.023239,292.468384 
	C252.761154,295.520355 255.432953,296.505127 258.597504,295.298553 
	C260.891022,294.424072 262.336151,292.346893 262.323029,289.873749 
	C262.307526,286.951538 260.569519,284.947388 257.782440,284.018768 
	C253.575699,282.617096 250.408218,286.130493 251.023239,292.468384 
z"/>
<path fill="#000000" opacity="1.000000" stroke="none" 
	d="
M255.845932,336.030212 
	C247.487289,340.786774 239.600174,338.879028 235.612000,331.434723 
	C233.411530,327.327301 234.289886,324.560455 238.696716,323.514496 
	C244.642838,322.103180 250.682205,321.004150 256.735138,320.151642 
	C260.780884,319.581848 263.002350,322.250610 262.105072,326.308929 
	C261.262177,330.121216 259.246765,333.336456 255.845932,336.030212 
z"/>
<path fill="#000000" opacity="1.000000" stroke="none" 
	d="
M168.343689,64.601044 
	C171.437302,64.078056 173.991928,64.220306 174.374771,67.612389 
	C174.726379,70.727928 172.165863,71.427734 169.843613,71.849815 
	C161.522110,73.362282 153.191925,74.837906 144.837265,76.150703 
	C142.266953,76.554581 138.957077,77.054863 138.517639,73.304886 
	C138.098587,69.728722 141.271973,69.242218 143.913681,68.776077 
	C151.918472,67.363594 159.935654,66.021286 168.343689,64.601044 
z"/>
<path fill="#000000" opacity="1.000000" stroke="none" 
	d="
M175.511780,87.615280 
	C165.699127,89.584534 156.249023,91.363510 146.785324,93.067024 
	C144.273560,93.519150 141.849625,93.041641 141.367767,90.125275 
	C140.868011,87.100555 143.231384,86.190559 145.666473,85.752411 
	C154.481293,84.166344 163.302811,82.617386 172.123459,81.063904 
	C173.864212,80.757332 175.521698,80.991982 176.583298,82.533798 
	C177.794388,84.292747 177.472687,85.975563 175.511780,87.615280 
z"/>
<path fill="#000000" opacity="1.000000" stroke="none" 
	d="
M146.597336,109.669266 
	C143.030457,105.682320 143.423447,103.581337 148.004547,102.646400 
	C156.944702,100.821854 165.954758,99.332085 174.953384,97.807068 
	C177.228973,97.421410 179.523895,97.875053 180.044785,100.562622 
	C180.558823,103.214935 178.743515,104.641640 176.395905,105.008453 
	C166.573471,106.543182 156.908493,109.042458 146.597336,109.669266 
z"/>
<path fill="#000000" opacity="1.000000" stroke="none" 
	d="
M158.347961,125.378624 
	C155.635529,125.759163 153.350830,126.178673 151.046997,126.388275 
	C148.941071,126.579865 147.467056,125.527168 147.107910,123.430946 
	C146.780197,121.518204 147.887955,120.025757 149.630234,119.673920 
	C156.442062,118.298355 163.279541,117.017670 170.150345,115.987373 
	C172.042618,115.703621 173.717819,116.990044 174.010864,119.118568 
	C174.313919,121.319763 172.898865,122.607460 170.978256,123.029388 
	C166.934906,123.917656 162.840683,124.574371 158.347961,125.378624 
z"/>
<path fill="#000000" opacity="1.000000" stroke="none" 
	d="
M343.506805,237.106659 
	C340.560669,236.538101 338.443298,235.424774 339.024445,232.465881 
	C339.555145,229.763428 341.953217,229.699005 344.193878,229.712830 
	C360.128845,229.811111 376.038818,231.158142 391.986420,230.661774 
	C394.463013,230.584686 396.987885,230.986053 397.019226,234.100388 
	C397.052734,237.427094 394.341187,238.033142 391.743256,238.025024 
	C380.289124,237.989227 368.834686,237.872955 357.381683,237.699936 
	C352.902435,237.632278 348.426575,237.339035 343.506805,237.106659 
z"/>
<path fill="#000000" opacity="1.000000" stroke="none" 
	d="
M338.794067,248.468231 
	C340.540283,246.374619 342.612000,246.709656 344.568695,246.776398 
	C352.179688,247.036026 359.788391,247.361877 367.398682,247.644211 
	C370.069641,247.743317 372.750366,248.226318 372.573059,251.555725 
	C372.397675,254.849243 369.590454,255.134079 366.992859,255.052353 
	C359.048157,254.802353 351.103058,254.536636 343.163788,254.157745 
	C339.913910,254.002670 337.665894,252.700653 338.794067,248.468231 
z"/>
<path fill="#000000" opacity="1.000000" stroke="none" 
	d="
M383.021667,248.827972 
	C383.868652,251.356857 383.434479,253.159912 381.100739,253.958878 
	C379.496124,254.508209 378.170410,253.780579 377.317413,252.363831 
	C376.457611,250.935776 376.552063,249.448486 377.698578,248.254211 
	C379.437988,246.442352 381.205200,246.815384 383.021667,248.827972 
z"/>
<path fill="#000000" opacity="1.000000" stroke="none" 
	d="
M331.189636,144.967712 
	C324.583954,144.530975 318.452972,144.150436 312.330261,143.665558 
	C309.711548,143.458176 306.964813,142.717285 307.243652,139.473663 
	C307.518585,136.275635 310.326172,135.858322 312.953705,136.120193 
	C327.547760,137.574661 342.166779,136.984192 356.781219,136.742310 
	C359.596954,136.695694 362.679749,136.813995 362.824249,140.288452 
	C362.971283,143.823212 359.787079,144.050964 357.057251,144.262222 
	C348.605469,144.916351 340.147278,145.319962 331.189636,144.967712 
z"/>
<path fill="#000000" opacity="1.000000" stroke="none" 
	d="
M333.098083,159.265442 
	C326.053009,162.824097 319.204285,160.781418 312.419220,159.663437 
	C310.710083,159.381821 309.784271,157.618134 310.060577,155.758804 
	C310.345734,153.840240 311.797394,152.825195 313.583466,152.871063 
	C319.374420,153.019775 325.187653,153.109848 330.936584,153.734863 
	C333.678345,154.032928 334.703125,156.207596 333.098083,159.265442 
z"/>
<path fill="#000000" opacity="1.000000" stroke="none" 
	d="
M345.184692,153.745834 
	C346.771820,156.058075 346.360809,157.781570 344.457703,159.128220 
	C343.022705,160.143646 341.602753,159.748840 340.463104,158.605255 
	C339.300507,157.438629 339.138306,155.884674 339.893158,154.510773 
	C341.078979,152.352371 342.911713,152.284058 345.184692,153.745834 
z"/>
</svg>