<svg xmlns="http://www.w3.org/2000/svg" width="640" height="480" version="1.1" viewBox="0 0 640 480"><desc>Created with Fabric.js 3.6.6</desc><g transform="matrix(1 0 0 1 28.25 231.9)"><linearGradient id="SVGID_219" x1="-236.556" x2="-196.556" y1="494.823" y2="534.823" gradientTransform="matrix(1 0 0 1 216.56 -494.82)" gradientUnits="userSpaceOnUse"><stop offset="0" style="stop-color:#9bd9ff;stop-opacity:1"/><stop offset="1" style="stop-color:#1da5ff;stop-opacity:1"/></linearGradient><rect style="stroke:#000;stroke-width:1.91;stroke-dasharray:none;stroke-linecap:butt;stroke-dashoffset:0;stroke-linejoin:miter;stroke-miterlimit:4;fill:url(#SVGID_219);fill-rule:nonzero;opacity:1" width="38.09" height="78.09" x="-19.045" y="-39.045" rx="0" ry="0"/></g><g transform="matrix(1 0 0 1 138.25 231.9)"><linearGradient id="SVGID_220" x1="306.556" x2="346.556" y1="494.823" y2="534.823" gradientTransform="matrix(1 0 0 1 -326.56 -494.82)" gradientUnits="userSpaceOnUse"><stop offset="0" style="stop-color:#9bd9ff;stop-opacity:1"/><stop offset="1" style="stop-color:#1da5ff;stop-opacity:1"/></linearGradient><rect style="stroke:#000;stroke-width:1.91;stroke-dasharray:none;stroke-linecap:butt;stroke-dashoffset:0;stroke-linejoin:miter;stroke-miterlimit:4;fill:url(#SVGID_220);fill-rule:nonzero;opacity:1" width="38.09" height="78.09" x="-19.045" y="-39.045" rx="0" ry="0"/></g><g transform="matrix(1 0 0 1 83.25 231.9)"><linearGradient id="SVGID_221" x1="251.556" x2="291.556" y1="494.823" y2="534.823" gradientTransform="matrix(1 0 0 1 -271.56 -494.82)" gradientUnits="userSpaceOnUse"><stop offset="0" style="stop-color:#9bd9ff;stop-opacity:1"/><stop offset="1" style="stop-color:#1da5ff;stop-opacity:1"/></linearGradient><rect style="stroke:#000;stroke-width:1.91;stroke-dasharray:none;stroke-linecap:butt;stroke-dashoffset:0;stroke-linejoin:miter;stroke-miterlimit:4;fill:url(#SVGID_221);fill-rule:nonzero;opacity:1" width="38.09" height="78.09" x="-19.045" y="-39.045" rx="0" ry="0"/></g><g><path style="stroke:none;stroke-width:2;stroke-dasharray:none;stroke-linecap:butt;stroke-dashoffset:0;stroke-linejoin:miter;stroke-miterlimit:4;fill:#000;fill-rule:nonzero;opacity:1" stroke-linecap="round" d="M 238.54002 466.09964 A 3.9163287 4.0350051 0 1 1 230.70736 466.09964 A 3.9163287 4.0350051 0 1 1 238.54002 466.09964 z" transform="matrix(0.64 0 0 0.62 14.85 231.9) translate(-234.62, -466.1)"/></g><g><text font-family="Arial" font-size="12.522" font-style="normal" font-weight="normal" transform="matrix(1 0 0 1 28.72 210.41)" style="stroke:none;stroke-width:1;stroke-dasharray:none;stroke-linecap:butt;stroke-dashoffset:0;stroke-linejoin:miter;stroke-miterlimit:4;fill:#000;fill-rule:nonzero;opacity:1;white-space:pre"><tspan x="-3.48" y="3.93">1</tspan></text></g><g><path style="stroke:none;stroke-width:2;stroke-dasharray:none;stroke-linecap:butt;stroke-dashoffset:0;stroke-linejoin:miter;stroke-miterlimit:4;fill:#000;fill-rule:nonzero;opacity:1" stroke-linecap="round" d="M 238.54002 466.09964 A 3.9163287 4.0350051 0 1 1 230.70736 466.09964 A 3.9163287 4.0350051 0 1 1 238.54002 466.09964 z" transform="matrix(0.64 0 0 0.62 69.85 231.9) translate(-234.62, -466.1)"/></g><g><text font-family="Arial" font-size="12.522" font-style="normal" font-weight="normal" transform="matrix(1 0 0 1 83.4 209.54)" style="stroke:none;stroke-width:1;stroke-dasharray:none;stroke-linecap:butt;stroke-dashoffset:0;stroke-linejoin:miter;stroke-miterlimit:4;fill:#000;fill-rule:nonzero;opacity:1;white-space:pre"><tspan x="-3.48" y="3.93">2</tspan></text></g><g><path style="stroke:none;stroke-width:2;stroke-dasharray:none;stroke-linecap:butt;stroke-dashoffset:0;stroke-linejoin:miter;stroke-miterlimit:4;fill:#000;fill-rule:nonzero;opacity:1" stroke-linecap="round" d="M 238.54002 466.09964 A 3.9163287 4.0350051 0 1 1 230.70736 466.09964 A 3.9163287 4.0350051 0 1 1 238.54002 466.09964 z" transform="matrix(0.64 0 0 0.62 124.85 231.9) translate(-234.62, -466.1)"/></g><g><text font-family="Arial" font-size="12.304" font-style="normal" font-weight="normal" transform="matrix(1 0 0 1 138.26 210.46)" style="stroke:none;stroke-width:1;stroke-dasharray:none;stroke-linecap:butt;stroke-dashoffset:0;stroke-linejoin:miter;stroke-miterlimit:4;fill:#000;fill-rule:nonzero;opacity:1;white-space:pre"><tspan x="-3.42" y="3.87">3</tspan></text></g><g transform="matrix(1 0 0 1 258.25 232.9)"><linearGradient id="SVGID_222" x1="-236.556" x2="-196.556" y1="494.823" y2="534.823" gradientTransform="matrix(1 0 0 1 216.56 -494.82)" gradientUnits="userSpaceOnUse"><stop offset="0" style="stop-color:#9bd9ff;stop-opacity:1"/><stop offset="1" style="stop-color:#1da5ff;stop-opacity:1"/></linearGradient><rect style="stroke:#000;stroke-width:1.91;stroke-dasharray:none;stroke-linecap:butt;stroke-dashoffset:0;stroke-linejoin:miter;stroke-miterlimit:4;fill:url(#SVGID_222);fill-rule:nonzero;opacity:1" width="38.09" height="78.09" x="-19.045" y="-39.045" rx="0" ry="0"/></g><g transform="matrix(1 0 0 1 368.25 232.9)"><linearGradient id="SVGID_223" x1="306.556" x2="346.556" y1="494.823" y2="534.823" gradientTransform="matrix(1 0 0 1 -326.56 -494.82)" gradientUnits="userSpaceOnUse"><stop offset="0" style="stop-color:#9bd9ff;stop-opacity:1"/><stop offset="1" style="stop-color:#1da5ff;stop-opacity:1"/></linearGradient><rect style="stroke:#000;stroke-width:1.91;stroke-dasharray:none;stroke-linecap:butt;stroke-dashoffset:0;stroke-linejoin:miter;stroke-miterlimit:4;fill:url(#SVGID_223);fill-rule:nonzero;opacity:1" width="38.09" height="78.09" x="-19.045" y="-39.045" rx="0" ry="0"/></g><g transform="matrix(1 0 0 1 313.25 232.9)"><linearGradient id="SVGID_224" x1="251.556" x2="291.556" y1="494.823" y2="534.823" gradientTransform="matrix(1 0 0 1 -271.56 -494.82)" gradientUnits="userSpaceOnUse"><stop offset="0" style="stop-color:#9bd9ff;stop-opacity:1"/><stop offset="1" style="stop-color:#1da5ff;stop-opacity:1"/></linearGradient><rect style="stroke:#000;stroke-width:1.91;stroke-dasharray:none;stroke-linecap:butt;stroke-dashoffset:0;stroke-linejoin:miter;stroke-miterlimit:4;fill:url(#SVGID_224);fill-rule:nonzero;opacity:1" width="38.09" height="78.09" x="-19.045" y="-39.045" rx="0" ry="0"/></g><g><path style="stroke:none;stroke-width:2;stroke-dasharray:none;stroke-linecap:butt;stroke-dashoffset:0;stroke-linejoin:miter;stroke-miterlimit:4;fill:#000;fill-rule:nonzero;opacity:1" stroke-linecap="round" d="M 238.54002 466.09964 A 3.9163287 4.0350051 0 1 1 230.70736 466.09964 A 3.9163287 4.0350051 0 1 1 238.54002 466.09964 z" transform="matrix(0.64 0 0 0.62 244.85 232.9) translate(-234.62, -466.1)"/></g><g><path style="stroke:none;stroke-width:2;stroke-dasharray:none;stroke-linecap:butt;stroke-dashoffset:0;stroke-linejoin:miter;stroke-miterlimit:4;fill:#000;fill-rule:nonzero;opacity:1" stroke-linecap="round" d="M 238.54002 466.09964 A 3.9163287 4.0350051 0 1 1 230.70736 466.09964 A 3.9163287 4.0350051 0 1 1 238.54002 466.09964 z" transform="matrix(0.64 0 0 0.62 299.85 232.9) translate(-234.62, -466.1)"/></g><g><path style="stroke:none;stroke-width:2;stroke-dasharray:none;stroke-linecap:butt;stroke-dashoffset:0;stroke-linejoin:miter;stroke-miterlimit:4;fill:#000;fill-rule:nonzero;opacity:1" stroke-linecap="round" d="M 238.54002 466.09964 A 3.9163287 4.0350051 0 1 1 230.70736 466.09964 A 3.9163287 4.0350051 0 1 1 238.54002 466.09964 z" transform="matrix(0.64 0 0 0.62 354.85 232.9) translate(-234.62, -466.1)"/></g><g transform="matrix(1 0 0 1 422.25 232.9)"><linearGradient id="SVGID_225" x1="-236.556" x2="-196.556" y1="494.823" y2="534.823" gradientTransform="matrix(1 0 0 1 216.56 -494.82)" gradientUnits="userSpaceOnUse"><stop offset="0" style="stop-color:#9bd9ff;stop-opacity:1"/><stop offset="1" style="stop-color:#1da5ff;stop-opacity:1"/></linearGradient><rect style="stroke:#000;stroke-width:1.91;stroke-dasharray:none;stroke-linecap:butt;stroke-dashoffset:0;stroke-linejoin:miter;stroke-miterlimit:4;fill:url(#SVGID_225);fill-rule:nonzero;opacity:1" width="38.09" height="78.09" x="-19.045" y="-39.045" rx="0" ry="0"/></g><g transform="matrix(1 0 0 1 582.25 232.9)"><linearGradient id="SVGID_226" x1="306.556" x2="346.556" y1="494.823" y2="534.823" gradientTransform="matrix(1 0 0 1 -326.56 -494.82)" gradientUnits="userSpaceOnUse"><stop offset="0" style="stop-color:#9bd9ff;stop-opacity:1"/><stop offset="1" style="stop-color:#1da5ff;stop-opacity:1"/></linearGradient><rect style="stroke:#000;stroke-width:1.91;stroke-dasharray:none;stroke-linecap:butt;stroke-dashoffset:0;stroke-linejoin:miter;stroke-miterlimit:4;fill:url(#SVGID_226);fill-rule:nonzero;opacity:1" width="38.09" height="78.09" x="-19.045" y="-39.045" rx="0" ry="0"/></g><g transform="matrix(1 0 0 1 530.25 232.9)"><linearGradient id="SVGID_227" x1="251.556" x2="291.556" y1="494.823" y2="534.823" gradientTransform="matrix(1 0 0 1 -271.56 -494.82)" gradientUnits="userSpaceOnUse"><stop offset="0" style="stop-color:#9bd9ff;stop-opacity:1"/><stop offset="1" style="stop-color:#1da5ff;stop-opacity:1"/></linearGradient><rect style="stroke:#000;stroke-width:1.91;stroke-dasharray:none;stroke-linecap:butt;stroke-dashoffset:0;stroke-linejoin:miter;stroke-miterlimit:4;fill:url(#SVGID_227);fill-rule:nonzero;opacity:1" width="38.09" height="78.09" x="-19.045" y="-39.045" rx="0" ry="0"/></g><g><path style="stroke:none;stroke-width:2;stroke-dasharray:none;stroke-linecap:butt;stroke-dashoffset:0;stroke-linejoin:miter;stroke-miterlimit:4;fill:#000;fill-rule:nonzero;opacity:1" stroke-linecap="round" d="M 238.54002 466.09964 A 3.9163287 4.0350051 0 1 1 230.70736 466.09964 A 3.9163287 4.0350051 0 1 1 238.54002 466.09964 z" transform="matrix(0.64 0 0 0.62 408.85 232.9) translate(-234.62, -466.1)"/></g><g><path style="stroke:none;stroke-width:2;stroke-dasharray:none;stroke-linecap:butt;stroke-dashoffset:0;stroke-linejoin:miter;stroke-miterlimit:4;fill:#000;fill-rule:nonzero;opacity:1" stroke-linecap="round" d="M 238.54002 466.09964 A 3.9163287 4.0350051 0 1 1 230.70736 466.09964 A 3.9163287 4.0350051 0 1 1 238.54002 466.09964 z" transform="matrix(0.64 0 0 0.62 520.85 233.9) translate(-234.62, -466.1)"/></g><g><path style="stroke:none;stroke-width:2;stroke-dasharray:none;stroke-linecap:butt;stroke-dashoffset:0;stroke-linejoin:miter;stroke-miterlimit:4;fill:#000;fill-rule:nonzero;opacity:1" stroke-linecap="round" d="M 238.54002 466.09964 A 3.9163287 4.0350051 0 1 1 230.70736 466.09964 A 3.9163287 4.0350051 0 1 1 238.54002 466.09964 z" transform="matrix(0.64 0 0 0.62 573.85 232.9) translate(-234.62, -466.1)"/></g><g transform="matrix(0 0 0 0 159 239)"><circle style="stroke:#000;stroke-width:8;stroke-dasharray:none;stroke-linecap:butt;stroke-dashoffset:0;stroke-linejoin:miter;stroke-miterlimit:4;fill:none;fill-rule:nonzero;opacity:1" cx="0" cy="0" r="40"/></g><g transform="matrix(1 0 0 1 477.25 232.9)"><linearGradient id="SVGID_228" x1="-236.556" x2="-196.556" y1="494.823" y2="534.823" gradientTransform="matrix(1 0 0 1 216.56 -494.82)" gradientUnits="userSpaceOnUse"><stop offset="0" style="stop-color:#9bd9ff;stop-opacity:1"/><stop offset="1" style="stop-color:#1da5ff;stop-opacity:1"/></linearGradient><rect style="stroke:#000;stroke-width:1.91;stroke-dasharray:none;stroke-linecap:butt;stroke-dashoffset:0;stroke-linejoin:miter;stroke-miterlimit:4;fill:url(#SVGID_228);fill-rule:nonzero;opacity:1" width="38.09" height="78.09" x="-19.045" y="-39.045" rx="0" ry="0"/></g><g><path style="stroke:none;stroke-width:2;stroke-dasharray:none;stroke-linecap:butt;stroke-dashoffset:0;stroke-linejoin:miter;stroke-miterlimit:4;fill:#000;fill-rule:nonzero;opacity:1" stroke-linecap="round" d="M 238.54002 466.09964 A 3.9163287 4.0350051 0 1 1 230.70736 466.09964 A 3.9163287 4.0350051 0 1 1 238.54002 466.09964 z" transform="matrix(0.64 0 0 0.62 463.85 232.9) translate(-234.62, -466.1)"/></g><g><text font-family="'Open Sans', sans-serif" font-size="18" font-style="normal" font-weight="normal" transform="matrix(1 0 0 1 28.53 173.87)" style="stroke:none;stroke-width:1;stroke-dasharray:none;stroke-linecap:butt;stroke-dashoffset:0;stroke-linejoin:miter;stroke-miterlimit:4;fill:#000;fill-rule:nonzero;opacity:1;white-space:pre"><tspan x="-16.03" y="5.65">1/n</tspan></text></g><g transform="matrix(1 0 0 1 50 50)"><polygon style="stroke:#000;stroke-width:0;stroke-dasharray:none;stroke-linecap:butt;stroke-dashoffset:0;stroke-linejoin:miter;stroke-miterlimit:4;fill:none;fill-rule:nonzero;opacity:1" points="-50 -50 -50 50 50 50 50 -50"/></g><g transform="matrix(3.338038, 0, 0, 1, 224.331909, 229.5)"><polygon style="stroke:#032dff;stroke-width:1;stroke-dasharray:none;stroke-linecap:butt;stroke-dashoffset:0;stroke-linejoin:miter;stroke-miterlimit:4;fill:none;fill-rule:nonzero;opacity:1" points="-50 -50 -50 50 50 50 50 -50"/></g><g transform="matrix(2.160479, 0, 0, 1, 504.306061, 229.5)"><polygon style="stroke:#ff1505;stroke-width:1;stroke-dasharray:none;stroke-linecap:butt;stroke-dashoffset:0;stroke-linejoin:miter;stroke-miterlimit:4;fill:none;fill-rule:nonzero;opacity:1" points="-50 -50 -50 50 50 50 50 -50"/></g><g><path style="stroke:#000;stroke-width:1;stroke-dasharray:none;stroke-linecap:butt;stroke-dashoffset:0;stroke-linejoin:miter;stroke-miterlimit:10;fill:#000;fill-rule:evenodd;opacity:1" stroke-linecap="round" d="m 0 14.960629 l 89.732285 0 l 0 -14.960629 l 29.921257 29.921259 l -29.921257 29.921259 l 0 -14.9606285 l -89.732285 0 z" transform="matrix(0 0.53 -0.35 0 346.4 127.08) translate(-59.83, -29.92)"/></g><g><text font-family="'Open Sans', sans-serif" font-size="18" font-style="normal" font-weight="normal" transform="matrix(1 0 0 1 355.51 79.87)" style="stroke:none;stroke-width:1;stroke-dasharray:none;stroke-linecap:butt;stroke-dashoffset:0;stroke-linejoin:miter;stroke-miterlimit:4;fill:#000;fill-rule:nonzero;opacity:1;white-space:pre"><tspan x="-31.01" y="5.65">1 - 1/n</tspan></text></g><g><path style="stroke:#0059ff;stroke-width:1;stroke-dasharray:none;stroke-linecap:butt;stroke-dashoffset:0;stroke-linejoin:miter;stroke-miterlimit:10;fill:#0c00ff;fill-rule:evenodd;opacity:1" stroke-linecap="round" d="m 0 14.960629 l 89.732285 0 l 0 -14.960629 l 29.921257 29.921259 l -29.921257 29.921259 l 0 -14.9606285 l -89.732285 0 z" transform="matrix(0.01 -0.53 0.35 0 195.74 325.55) translate(-59.83, -29.92)"/></g><g><text font-family="'Open Sans', sans-serif" font-size="18" font-style="normal" font-weight="normal" transform="matrix(1 0 0 1 200.12 81.87)" style="stroke:none;stroke-width:1;stroke-dasharray:none;stroke-linecap:butt;stroke-dashoffset:0;stroke-linejoin:miter;stroke-miterlimit:4;fill:#000;fill-rule:nonzero;opacity:1;white-space:pre"><tspan x="-10.66" y="5.65" style="stroke-width:1;font-family:'Open Sans',sans-serif;font-size:18px;font-style:normal;font-weight:400;fill:#000">0</tspan></text></g><g><path style="stroke:#ff0005;stroke-width:1;stroke-dasharray:none;stroke-linecap:butt;stroke-dashoffset:0;stroke-linejoin:miter;stroke-miterlimit:10;fill:#ff0007;fill-rule:evenodd;opacity:1" stroke-linecap="round" d="m 0 14.960629 l 89.732285 0 l 0 -14.960629 l 29.921257 29.921259 l -29.921257 29.921259 l 0 -14.9606285 l -89.732285 0 z" transform="matrix(-0.01 0.53 -0.35 -0.01 501.74 124.55) translate(-59.83, -29.92)"/></g><g><text font-family="'Open Sans', sans-serif" font-size="18" font-style="normal" font-weight="normal" transform="matrix(1 0 0 1 505.51 79.87)" style="stroke:none;stroke-width:1;stroke-dasharray:none;stroke-linecap:butt;stroke-dashoffset:0;stroke-linejoin:miter;stroke-miterlimit:4;fill:#000;fill-rule:nonzero;opacity:1;white-space:pre"><tspan x="-31.01" y="5.65">1 - 1/n</tspan></text></g><g><text font-family="'Open Sans', sans-serif" font-size="18" font-style="normal" font-weight="normal" transform="matrix(1 0 0 1 202.5 374.87)" style="stroke:none;stroke-width:1;stroke-dasharray:none;stroke-linecap:butt;stroke-dashoffset:0;stroke-linejoin:miter;stroke-miterlimit:4;fill:#000;fill-rule:nonzero;opacity:1;white-space:pre"><tspan x="-40" y="5.65" style="stroke-width:1;font-family:'Open Sans',sans-serif;font-size:18px;font-style:normal;font-weight:400;fill:#000">k doors</tspan></text></g><g transform="matrix(5.7 0 0 1.14 338.85 228.78)"><polygon style="stroke:#000;stroke-width:1;stroke-dasharray:none;stroke-linecap:butt;stroke-dashoffset:0;stroke-linejoin:miter;stroke-miterlimit:4;fill:none;fill-rule:nonzero;opacity:1" points="-50 -50 -50 50 50 50 50 -50"/></g><g><path style="stroke:#0059ff;stroke-width:1;stroke-dasharray:none;stroke-linecap:butt;stroke-dashoffset:0;stroke-linejoin:miter;stroke-miterlimit:10;fill:#0c00ff;fill-rule:evenodd;opacity:1" stroke-linecap="round" d="m 0 14.960629 l 89.732285 0 l 0 -14.960629 l 29.921257 29.921259 l -29.921257 29.921259 l 0 -14.9606285 l -89.732285 0 z" transform="matrix(0.01 0.53 -0.35 0 194.4 125.08) translate(-59.83, -29.92)"/></g><g><text font-family="'Open Sans', sans-serif" font-size="18" font-style="normal" font-weight="normal" transform="matrix(1 0 0 1 497 374.87)" style="stroke:none;stroke-width:1;stroke-dasharray:none;stroke-linecap:butt;stroke-dashoffset:0;stroke-linejoin:miter;stroke-miterlimit:4;fill:#000;fill-rule:nonzero;opacity:1;white-space:pre"><tspan x="-60.49" y="5.65" style="stroke-width:1;font-family:'Open Sans',sans-serif;font-size:18px;font-style:normal;font-weight:400;fill:#000">n - k - 1 doors</tspan></text></g><g><path style="stroke:#ff0005;stroke-width:1;stroke-dasharray:none;stroke-linecap:butt;stroke-dashoffset:0;stroke-linejoin:miter;stroke-miterlimit:10;fill:#ff0007;fill-rule:evenodd;opacity:1" stroke-linecap="round" d="m 0 14.960629 l 89.732285 0 l 0 -14.960629 l 29.921257 29.921259 l -29.921257 29.921259 l 0 -14.9606285 l -89.732285 0 z" transform="matrix(-0.01 -0.53 0.35 -0.01 491.09 329.02) translate(-59.83, -29.92)"/></g><g><text font-family="'Open Sans', sans-serif" font-size="18" font-style="normal" font-weight="normal" transform="matrix(1 0 0 1 199.51 229.87)" style="stroke:none;stroke-width:1;stroke-dasharray:none;stroke-linecap:butt;stroke-dashoffset:0;stroke-linejoin:miter;stroke-miterlimit:4;fill:#000;fill-rule:nonzero;opacity:1;white-space:pre"><tspan x="-24.01" y="5.65" style="stroke-width:1;font-family:'Open Sans',sans-serif;font-size:18px;font-style:normal;font-weight:400;fill:#000">.........</tspan></text></g><g><text font-family="'Open Sans', sans-serif" font-size="18" font-style="normal" font-weight="normal" transform="matrix(1 0 0 1 260.53 207.87)" style="stroke:none;stroke-width:1;stroke-dasharray:none;stroke-linecap:butt;stroke-dashoffset:0;stroke-linejoin:miter;stroke-miterlimit:4;fill:#000;fill-rule:nonzero;opacity:1;white-space:pre"><tspan x="-15.03" y="5.65" style="stroke-width:1;font-family:'Open Sans',sans-serif;font-size:18px;font-style:normal;font-weight:400;fill:#000">k-1</tspan></text></g><g><text font-family="'Open Sans', sans-serif" font-size="18" font-style="normal" font-weight="normal" transform="matrix(1 0 0 1 324.53 208.87)" style="stroke:none;stroke-width:1;stroke-dasharray:none;stroke-linecap:butt;stroke-dashoffset:0;stroke-linejoin:miter;stroke-miterlimit:4;fill:#000;fill-rule:nonzero;opacity:1;white-space:pre"><tspan x="-15.03" y="5.65" style="stroke-width:1;font-family:'Open Sans',sans-serif;font-size:18px;font-style:normal;font-weight:400;fill:#000">k</tspan></text></g><g><text font-family="'Open Sans', sans-serif" font-size="18" font-style="normal" font-weight="normal" transform="matrix(1 0 0 1 372.03 207.87)" style="stroke:none;stroke-width:1;stroke-dasharray:none;stroke-linecap:butt;stroke-dashoffset:0;stroke-linejoin:miter;stroke-miterlimit:4;fill:#000;fill-rule:nonzero;opacity:1;white-space:pre"><tspan x="-18.53" y="5.65" style="stroke-width:1;font-family:'Open Sans',sans-serif;font-size:18px;font-style:normal;font-weight:400;fill:#000">k+1</tspan></text></g><g><text font-family="'Open Sans', sans-serif" font-size="18" font-style="normal" font-weight="normal" transform="matrix(1 0 0 1 587.02 204.87)" style="stroke:none;stroke-width:1;stroke-dasharray:none;stroke-linecap:butt;stroke-dashoffset:0;stroke-linejoin:miter;stroke-miterlimit:4;fill:#000;fill-rule:nonzero;opacity:1;white-space:pre"><tspan x="-10.52" y="5.65" style="stroke-width:1;font-family:'Open Sans',sans-serif;font-size:18px;font-style:normal;font-weight:400;fill:#000">n</tspan></text></g><g><text font-family="'Open Sans', sans-serif" font-size="18" font-style="normal" font-weight="normal" transform="matrix(1, 0, 0, 1, 425.490234, 207.794983)" style="stroke:none;stroke-width:1;stroke-dasharray:none;stroke-linecap:butt;stroke-dashoffset:0;stroke-linejoin:miter;stroke-miterlimit:4;fill:#000;fill-rule:nonzero;opacity:1;white-space:pre"><tspan x="-18.53" y="5.65" style="stroke-width:1;font-family:'Open Sans',sans-serif;font-size:18px;font-style:normal;font-weight:400;fill:#000">k+2</tspan></text></g></svg>