<svg xmlns="http://www.w3.org/2000/svg" xmlns:cc="http://web.resource.org/cc/" xmlns:svg="http://www.w3.org/2000/svg" xmlns:xlink="http://www.w3.org/1999/xlink" xmlns:xml="http://www.w3.org/XML/1998/namespace" id="svg2" width="160" height="145" version="1.0"><defs id="defs4"><linearGradient id="linearGradient6420"><stop id="stop6422" offset="0" style="stop-color:#9bd9ff;stop-opacity:1"/><stop id="stop6424" offset="1" style="stop-color:#1da5ff;stop-opacity:1"/></linearGradient><linearGradient id="linearGradient11994" x1="-236.556" x2="-196.556" y1="494.823" y2="534.823" gradientTransform="translate(433.1117,0)" gradientUnits="userSpaceOnUse" xlink:href="#linearGradient6420"/><linearGradient id="linearGradient12035" x1="306.556" x2="346.556" y1="494.823" y2="534.823" gradientUnits="userSpaceOnUse" xlink:href="#linearGradient6420"/><linearGradient id="linearGradient12037" x1="251.556" x2="291.556" y1="494.823" y2="534.823" gradientUnits="userSpaceOnUse" xlink:href="#linearGradient6420"/><linearGradient id="linearGradient12079" x1="-236.556" x2="-196.556" y1="494.823" y2="534.823" gradientTransform="translate(433.1117,0)" gradientUnits="userSpaceOnUse" xlink:href="#linearGradient6420"/><linearGradient id="linearGradient12081" x1="306.556" x2="346.556" y1="494.823" y2="534.823" gradientUnits="userSpaceOnUse" xlink:href="#linearGradient6420"/><linearGradient id="linearGradient12083" x1="251.556" x2="291.556" y1="494.823" y2="534.823" gradientUnits="userSpaceOnUse" xlink:href="#linearGradient6420"/><linearGradient id="linearGradient1344" x1="-236.556" x2="-196.556" y1="494.823" y2="534.823" gradientTransform="translate(434.3617,2.604324)" gradientUnits="userSpaceOnUse" xlink:href="#linearGradient6420"/><linearGradient id="linearGradient1347" x1="251.556" x2="291.556" y1="494.823" y2="534.823" gradientTransform="translate(1.250035,2.604324)" gradientUnits="userSpaceOnUse" xlink:href="#linearGradient6420"/><linearGradient id="linearGradient1350" x1="306.556" x2="346.556" y1="494.823" y2="534.823" gradientTransform="translate(1.250035,2.604324)" gradientUnits="userSpaceOnUse" xlink:href="#linearGradient6420"/></defs><metadata id="metadata7"/><g id="layer1" transform="translate(-196.5559,-402.5319)"><rect style="fill:url(#linearGradient1344);fill-opacity:1;fill-rule:nonzero;stroke:#000;stroke-width:1.9115727;stroke-miterlimit:4;stroke-opacity:1" id="rect1933" width="38.088" height="78.088" x="198.762" y="458.383"/><rect id="rect2852" width="38.088" height="78.088" x="308.762" y="458.383" style="fill:url(#linearGradient1350);fill-opacity:1;fill-rule:nonzero;stroke:#000;stroke-width:1.9115727;stroke-miterlimit:4;stroke-opacity:1"/><rect id="rect2828" width="38.088" height="78.088" x="253.762" y="458.383" style="fill:url(#linearGradient1347);fill-opacity:1;fill-rule:nonzero;stroke:#000;stroke-width:1.9115727;stroke-miterlimit:4;stroke-opacity:1"/><path style="stroke-opacity:1;stroke-dasharray:none;stroke-miterlimit:4;stroke-width:2;stroke:none;fill-rule:nonzero;fill-opacity:1;fill:#000" id="path2822" d="M 238.54002 466.09964 A 3.9163287 4.0350051 0 1 1 230.70736,466.09964 A 3.9163287 4.0350051 0 1 1 238.54002 466.09964 z" transform="matrix(0.638353,0.000000,0.000000,0.619578,54.61876,208.6424)"/><text style="font-size:12.521739;font-style:normal;font-variant:normal;font-weight:400;font-stretch:normal;fill:#000;fill-opacity:1;stroke:none;stroke-width:1px;stroke-linecap:butt;stroke-linejoin:miter;stroke-opacity:1;font-family:Arial;text-anchor:middle;writing-mode:lr-tb" id="text2824" x="218.277" y="479.873" xml:space="preserve"><tspan id="tspan2826" x="218.277" y="479.873" style="font-family:Arial">1</tspan></text><path style="stroke-opacity:1;stroke-dasharray:none;stroke-miterlimit:4;stroke-width:2;stroke:none;fill-rule:nonzero;fill-opacity:1;fill:#000" id="path2830" d="M 238.54002 466.09964 A 3.9163287 4.0350051 0 1 1 230.70736,466.09964 A 3.9163287 4.0350051 0 1 1 238.54002 466.09964 z" transform="matrix(0.638353,0.000000,0.000000,0.619578,109.6187,208.6424)"/><text style="font-size:12.521739;font-style:normal;font-variant:normal;font-weight:400;font-stretch:normal;fill:#000;fill-opacity:1;stroke:none;stroke-width:1px;stroke-linecap:butt;stroke-linejoin:miter;stroke-opacity:1;font-family:Arial;text-anchor:middle;writing-mode:lr-tb" id="text2832" x="272.956" y="478.998" xml:space="preserve"><tspan id="tspan2834" x="272.956" y="478.998" style="font-family:Arial">2</tspan></text><path style="stroke-opacity:1;stroke-dasharray:none;stroke-miterlimit:4;stroke-width:2;stroke:none;fill-rule:nonzero;fill-opacity:1;fill:#000" id="path2854" d="M 238.54002 466.09964 A 3.9163287 4.0350051 0 1 1 230.70736,466.09964 A 3.9163287 4.0350051 0 1 1 238.54002 466.09964 z" transform="matrix(0.638353,0.000000,0.000000,0.619578,164.6187,208.6424)"/><text style="font-size:12.304406;font-style:normal;font-variant:normal;font-weight:400;font-stretch:normal;fill:#000;fill-opacity:1;stroke:none;stroke-width:1px;stroke-linecap:butt;stroke-linejoin:miter;stroke-opacity:1;font-family:Arial;text-anchor:middle;writing-mode:lr-tb" id="text2856" x="327.818" y="479.844" xml:space="preserve"><tspan id="tspan2858" x="327.818" y="479.844" style="font-family:Arial">3</tspan></text><rect style="fill:none;fill-opacity:1;fill-rule:nonzero;stroke:#000;stroke-width:1.0171518;stroke-miterlimit:4;stroke-opacity:1" id="rect2860" width="108.983" height="93.983" x="245.814" y="450.436"/><path style="fill:#000;fill-opacity:1;fill-rule:nonzero;stroke:#000;stroke-width:.25498921;stroke-miterlimit:4;stroke-opacity:1" id="rect11998" d="M 216.68156,419.35793 L 218.93025,419.35793 L 218.93025,443.23026 L 221.32870,443.23026 L 217.80591,447.49711 L 214.28312,443.23026 L 216.68156,443.23026 L 216.68156,419.35793 z"/><path style="fill:#000;fill-opacity:1;fill-rule:nonzero;stroke:#000;stroke-width:.25498921;stroke-miterlimit:4;stroke-opacity:1" id="path12001" d="M 299.18150,419.35793 L 301.43020,419.35793 L 301.43020,443.23026 L 303.82864,443.23026 L 300.30585,447.49711 L 296.78306,443.23026 L 299.18150,443.23026 L 299.18150,419.35793 z"/><text style="font-size:12.150296;font-style:normal;font-variant:normal;font-weight:400;font-stretch:normal;fill:#000;fill-opacity:1;stroke:none;stroke-width:1px;stroke-linecap:butt;stroke-linejoin:miter;stroke-opacity:1;font-family:Arial;text-anchor:middle;writing-mode:lr-tb" id="text12023" x="217.411" y="414.015" xml:space="preserve"><tspan id="tspan12025" x="217.411" y="414.015" style="font-family:Arial">1/3</tspan></text><text style="font-size:12.150296;font-style:normal;font-variant:normal;font-weight:400;font-stretch:normal;fill:#000;fill-opacity:1;stroke:none;stroke-width:1px;stroke-linecap:butt;stroke-linejoin:miter;stroke-opacity:1;font-family:Arial;text-anchor:middle;writing-mode:lr-tb" id="text12027" x="300.395" y="414.123" xml:space="preserve"><tspan id="tspan12029" x="300.395" y="414.123" style="font-family:Arial">2/3</tspan></text></g></svg>